<svg width="101" height="18" viewBox="0 0 101 18" fill="none" xmlns="http://www.w3.org/2000/svg">
<path d="M0 9.01582C0 6.06715 2.26699 3.97455 5.45346 3.97455C7.4985 3.97455 9.11552 4.78305 9.82891 6.36836L7.21315 7.0659C6.7217 6.54275 6.10343 6.30495 5.4376 6.30495C3.99497 6.30495 2.8694 7.30369 2.8694 9.01582C2.8694 10.728 3.99497 11.7267 5.4376 11.7267C6.11928 11.7267 6.7217 11.4889 7.21315 10.9658L9.82891 11.584C9.11552 13.1376 7.4985 14.0412 5.45346 14.0412C2.28284 14.0571 0 11.9645 0 9.01582Z" fill="white"/>
<path d="M21.3383 8.31835V13.9145H18.5005V8.74639C18.5005 7.16108 17.7713 6.43184 16.5189 6.43184C15.1555 6.43184 14.1727 7.27205 14.1727 9.06345V13.8986H11.335V1.10521L14.1727 0.423523V5.14774C14.9336 4.38679 16.0275 3.99046 17.2799 3.99046C19.5944 3.99046 21.3383 5.33798 21.3383 8.31835Z" fill="white"/>
<path d="M33.704 3.6734V13.9145H30.9932V12.7889C30.2798 13.645 29.2493 14.0572 27.9335 14.0572C25.1751 14.0572 23.0508 12.0914 23.0508 9.01589C23.0508 5.94039 25.1751 3.97461 27.9335 3.97461C29.1384 3.97461 30.153 4.35508 30.8663 5.16359V4.37094L33.704 3.6734ZM30.9298 9.01589C30.9298 7.31961 29.8359 6.30501 28.4408 6.30501C27.0299 6.30501 25.936 7.31961 25.936 9.01589C25.936 10.7122 27.0299 11.7268 28.4408 11.7268C29.8359 11.7268 30.9298 10.7122 30.9298 9.01589Z" fill="white"/>
<path d="M42.2006 3.99048V6.60624C41.9628 6.59038 41.7885 6.57453 41.5665 6.57453C39.9971 6.57453 38.9666 7.43059 38.9666 9.30126V13.9145H36.1289V4.33925L38.8398 3.68927V5.43311C39.5215 4.48192 40.6946 3.99048 42.2006 3.99048Z" fill="white"/>
<path d="M53.8216 3.6734V12.2658C53.8216 15.8961 51.8558 17.5765 48.3364 17.5765C46.4816 17.5765 44.6902 17.1168 43.5329 16.229L44.6585 14.1998C45.4987 14.8657 46.8621 15.3096 48.1145 15.3096C50.1119 15.3096 50.9839 14.4059 50.9839 12.6304V12.2182C50.2388 13.0426 49.1608 13.4389 47.8925 13.4389C45.1816 13.4389 43.0098 11.5682 43.0098 8.71468C43.0098 5.86113 45.1975 3.99046 47.8925 3.99046C49.2559 3.99046 50.3814 4.4502 51.1265 5.38553V4.33923L53.8216 3.6734ZM51.0314 8.71468C51.0314 7.27205 49.9534 6.32086 48.4632 6.32086C46.973 6.32086 45.8792 7.2879 45.8792 8.71468C45.8792 10.1573 46.973 11.1085 48.4632 11.1085C49.9534 11.1085 51.0314 10.1415 51.0314 8.71468Z" fill="white"/>
<path d="M58.7992 10.6328C59.259 11.3938 60.115 11.7901 61.2406 11.7901C62.2711 11.7901 63.0161 11.4889 63.6978 10.8389L65.2039 12.4718C64.3002 13.5022 62.9369 14.0571 61.1613 14.0571C57.7846 14.0571 55.5811 11.9328 55.5811 9.01582C55.5811 6.08301 57.8005 3.97455 60.8126 3.97455C63.5234 3.97455 65.7429 5.7818 65.8538 8.77803L58.7992 10.6328ZM58.3712 8.95241L63.143 7.81099C62.8735 6.81225 62.0015 6.13057 60.8126 6.13057C59.4016 6.13057 58.3712 7.03419 58.3712 8.95241Z" fill="white"/>
<path d="M82.5785 10.6328C83.0383 11.3938 83.8943 11.7901 85.0199 11.7901C86.0504 11.7901 86.7954 11.4889 87.4771 10.8389L88.9832 12.4718C88.0795 13.5022 86.7162 14.0571 84.9406 14.0571C81.5639 14.0571 79.3604 11.9328 79.3604 9.01582C79.3604 6.08301 81.5798 3.97455 84.5919 3.97455C87.3027 3.97455 89.5222 5.7818 89.6331 8.77803L82.5785 10.6328ZM82.1505 8.95241L86.9223 7.81099C86.6528 6.81225 85.7808 6.13057 84.5919 6.13057C83.1809 6.13057 82.1505 7.03419 82.1505 8.95241Z" fill="white"/>
<path d="M93.9457 10.6328C94.4055 11.3938 95.2615 11.7901 96.3871 11.7901C97.4175 11.7901 98.1626 11.4889 98.8443 10.8389L100.35 12.4718C99.4467 13.5022 98.0834 14.0571 96.3078 14.0571C92.9311 14.0571 90.7275 11.9328 90.7275 9.01582C90.7275 6.08301 92.947 3.97455 95.9591 3.97455C98.6699 3.97455 100.889 5.7818 101 8.77803L93.9457 10.6328ZM93.5177 8.95241L98.2894 7.81099C98.0199 6.81225 97.148 6.13057 95.9591 6.13057C94.5481 6.13057 93.5177 7.03419 93.5177 8.95241Z" fill="white"/>
<path d="M78.2509 9.01589C78.2509 12.0914 76.1266 14.0572 73.384 14.0572C72.0682 14.0572 71.0219 13.645 70.3085 12.7889V13.9145H67.5977V1.12106L70.4354 0.423523V5.16359C71.1646 4.37094 72.1633 3.97461 73.384 3.97461C76.1266 3.99046 78.2509 5.95624 78.2509 9.01589ZM75.3815 9.01589C75.3815 7.31961 74.3035 6.30501 72.8926 6.30501C71.4817 6.30501 70.4037 7.31961 70.4037 9.01589C70.4037 10.7122 71.4817 11.7268 72.8926 11.7268C74.3194 11.7268 75.3815 10.7122 75.3815 9.01589Z" fill="white"/>
</svg>
