<svg xmlns="http://www.w3.org/2000/svg" xmlns:xlink="http://www.w3.org/1999/xlink" width="602" height="648" fill="none" xmlns:v="https://vecta.io/nano"><path d="M338.24 10.8c0-.4-.2-.6-.6-.6h-2.4c-.4 0-.6-.2-.6-.6s.2-.6.6-.6h7.6c.4 0 .6.2.6.6s-.2.6-.6.6h-2.8c-.4 0-.6.2-.6.6v24.4c0 .4.2.6.6.6h2.8c.4 0 .6.2.6.6s-.2.6-.6.6h-7.6c-.4 0-.6-.2-.6-.6s.2-.6.6-.6h2.4c.4 0 .6-.2.6-.6V24c0-.4-.2-.6-.6-.6h-16c-.4 0-.6.2-.6.6v11.2c0 .4.2.6.6.6h2.4c.4 0 .6.2.6.6s-.2.6-.6.6h-7.6c-.4 0-.6-.2-.6-.6s.2-.6.6-.6h2.8c.4 0 .6-.2.6-.6V10.8c0-.4-.2-.6-.6-.6h-2.8c-.4 0-.6-.2-.6-.6s.2-.6.6-.6h7.6c.4 0 .6.2.6.6s-.2.6-.6.6h-2.4c-.4 0-.6.2-.6.6v10.8c0 .4.2.6.6.6h16c.4 0 .6-.2.6-.6V10.8zm23.715 23.4c.427-.32.747-.587.96-.8.24-.213.427-.28.56-.2.134.053.294.2.48.44.214.213.16.453-.16.72-.96.827-2.066 1.547-3.32 2.16-1.253.587-2.853.88-4.8.88-2.826 0-5.106-.973-6.84-2.92-1.706-1.947-2.56-4.44-2.56-7.48s.854-5.533 2.56-7.48c1.734-1.947 3.987-2.92 6.76-2.92 2.8 0 5.08.88 6.84 2.64s2.64 3.88 2.64 6.36v.6c0 .8-.4 1.2-1.2 1.2h-15.76c-.453 0-.653.2-.6.6.16 2.32.947 4.267 2.36 5.84 1.44 1.573 3.4 2.36 5.88 2.36 2.507 0 4.574-.667 6.2-2zm-14.4-8.48c0 .32.187.48.56.48h15.16c.4 0 .6-.2.6-.6 0-2.133-.786-3.96-2.36-5.48-1.546-1.547-3.52-2.32-5.92-2.32-2.373 0-4.306.84-5.8 2.52s-2.24 3.48-2.24 5.4zM368.251 37c-.4 0-.6-.2-.6-.6s.2-.6.6-.6h2.8c.4 0 .6-.2.6-.6V10.8c0-.4-.2-.6-.6-.6h-2.8c-.4 0-.6-.2-.6-.6s.2-.6.6-.6h4c.4 0 .6.2.6.6v25.6c0 .4.2.6.6.6h2.8c.4 0 .6.2.6.6s-.2.6-.6.6h-8zm10.703 0c-.4 0-.6-.2-.6-.6s.2-.6.6-.6h2.8c.4 0 .6-.2.6-.6V10.8c0-.4-.2-.6-.6-.6h-2.8c-.4 0-.6-.2-.6-.6s.2-.6.6-.6h4c.4 0 .6.2.6.6v25.6c0 .4.2.6.6.6h2.8c.4 0 .6.2.6.6s-.2.6-.6.6h-8zm13.869-2.48c-1.814-1.92-2.72-4.427-2.72-7.52s.906-5.6 2.72-7.52 4.173-2.88 7.08-2.88 5.266.96 7.08 2.88 2.72 4.427 2.72 7.52-.907 5.6-2.72 7.52-4.174 2.88-7.08 2.88-5.267-.96-7.08-2.88zm7.08-16.72c-2.587 0-4.667.84-6.24 2.52s-2.36 3.92-2.36 6.72c0 2.773.773 5 2.32 6.68 1.573 1.653 3.666 2.48 6.28 2.48s4.693-.827 6.24-2.48c1.573-1.68 2.36-3.907 2.36-6.68 0-2.8-.787-5.04-2.36-6.72s-3.654-2.52-6.24-2.52zm16.591 16.72c-1.813-1.92-2.72-4.427-2.72-7.52s.907-5.6 2.72-7.52 4.174-2.88 7.08-2.88 5.267.96 7.08 2.88 2.72 4.427 2.72 7.52-.906 5.6-2.72 7.52-4.173 2.88-7.08 2.88-5.266-.96-7.08-2.88zm7.08-16.72c-2.586 0-4.666.84-6.24 2.52s-2.36 3.92-2.36 6.72c0 2.773.774 5 2.32 6.68 1.574 1.653 3.667 2.48 6.28 2.48s4.694-.827 6.24-2.48c1.574-1.68 2.36-3.907 2.36-6.68 0-2.8-.786-5.04-2.36-6.72s-3.653-2.52-6.24-2.52zm16.592 16.72c-1.813-1.92-2.72-4.427-2.72-7.52s.907-5.6 2.72-7.52 4.174-2.88 7.08-2.88 5.267.96 7.08 2.88 2.72 4.427 2.72 7.52-.906 5.6-2.72 7.52-4.173 2.88-7.08 2.88-5.266-.96-7.08-2.88zm7.08-16.72c-2.586 0-4.666.84-6.24 2.52s-2.36 3.92-2.36 6.72c0 2.773.774 5 2.32 6.68 1.574 1.653 3.667 2.48 6.28 2.48s4.694-.827 6.24-2.48c1.574-1.68 2.36-3.907 2.36-6.68 0-2.8-.786-5.04-2.36-6.72s-3.653-2.52-6.24-2.52zm16.592 16.72c-1.813-1.92-2.72-4.427-2.72-7.52s.907-5.6 2.72-7.52 4.173-2.88 7.08-2.88 5.267.96 7.08 2.88 2.72 4.427 2.72 7.52-.907 5.6-2.72 7.52-4.173 2.88-7.08 2.88-5.267-.96-7.08-2.88zm7.08-16.72c-2.587 0-4.667.84-6.24 2.52s-2.36 3.92-2.36 6.72c0 2.773.773 5 2.32 6.68 1.573 1.653 3.667 2.48 6.28 2.48s4.693-.827 6.24-2.48c1.573-1.68 2.36-3.907 2.36-6.68 0-2.8-.787-5.04-2.36-6.72s-3.653-2.52-6.24-2.52zm16.592 16.72c-1.813-1.92-2.72-4.427-2.72-7.52s.907-5.6 2.72-7.52 4.173-2.88 7.08-2.88 5.267.96 7.08 2.88 2.72 4.427 2.72 7.52-.907 5.6-2.72 7.52-4.173 2.88-7.08 2.88-5.267-.96-7.08-2.88zm7.08-16.72c-2.587 0-4.667.84-6.24 2.52s-2.36 3.92-2.36 6.72c0 2.773.773 5 2.32 6.68 1.573 1.653 3.667 2.48 6.28 2.48s4.693-.827 6.24-2.48c1.573-1.68 2.36-3.907 2.36-6.68 0-2.8-.787-5.04-2.36-6.72s-3.653-2.52-6.24-2.52zm16.592 16.72c-1.813-1.92-2.72-4.427-2.72-7.52s.907-5.6 2.72-7.52 4.173-2.88 7.08-2.88 5.267.96 7.08 2.88 2.72 4.427 2.72 7.52-.907 5.6-2.72 7.52-4.173 2.88-7.08 2.88-5.267-.96-7.08-2.88zm7.08-16.72c-2.587 0-4.667.84-6.24 2.52s-2.36 3.92-2.36 6.72c0 2.773.773 5 2.32 6.68 1.573 1.653 3.667 2.48 6.28 2.48s4.693-.827 6.24-2.48c1.573-1.68 2.36-3.907 2.36-6.68 0-2.8-.787-5.04-2.36-6.72s-3.653-2.52-6.24-2.52zm16.592 16.72c-1.814-1.92-2.72-4.427-2.72-7.52s.906-5.6 2.72-7.52 4.173-2.88 7.08-2.88 5.266.96 7.08 2.88 2.72 4.427 2.72 7.52-.907 5.6-2.72 7.52-4.174 2.88-7.08 2.88-5.267-.96-7.08-2.88zm7.08-16.72c-2.587 0-4.667.84-6.24 2.52s-2.36 3.92-2.36 6.72c0 2.773.773 5 2.32 6.68 1.573 1.653 3.666 2.48 6.28 2.48s4.693-.827 6.24-2.48c1.573-1.68 2.36-3.907 2.36-6.68 0-2.8-.787-5.04-2.36-6.72s-3.654-2.52-6.24-2.52zm16.592 16.72c-1.814-1.92-2.72-4.427-2.72-7.52s.906-5.6 2.72-7.52 4.173-2.88 7.08-2.88 5.266.96 7.08 2.88 2.72 4.427 2.72 7.52-.907 5.6-2.72 7.52-4.174 2.88-7.08 2.88-5.267-.96-7.08-2.88zm7.08-16.72c-2.587 0-4.667.84-6.24 2.52s-2.36 3.92-2.36 6.72c0 2.773.773 5 2.32 6.68 1.573 1.653 3.666 2.48 6.28 2.48s4.693-.827 6.24-2.48c1.573-1.68 2.36-3.907 2.36-6.68 0-2.8-.787-5.04-2.36-6.72s-3.654-2.52-6.24-2.52zm16.592 16.72c-1.814-1.92-2.72-4.427-2.72-7.52s.906-5.6 2.72-7.52 4.173-2.88 7.08-2.88 5.266.96 7.08 2.88 2.72 4.427 2.72 7.52-.907 5.6-2.72 7.52-4.174 2.88-7.08 2.88-5.267-.96-7.08-2.88zm7.08-16.72c-2.587 0-4.667.84-6.24 2.52s-2.36 3.92-2.36 6.72c0 2.773.773 5 2.32 6.68 1.573 1.653 3.666 2.48 6.28 2.48s4.693-.827 6.24-2.48c1.573-1.68 2.36-3.907 2.36-6.68 0-2.8-.787-5.04-2.36-6.72s-3.654-2.52-6.24-2.52z" fill="#dfa45c"/><g opacity=".5" stroke-width="2" stroke-miterlimit="10"><path d="M225.256 299.957C223.334 298.633 220.723 298.578 218.893 300.031C217.578 301.07 216.594 302.863 217.109 305.925C218.258 312.822 257.154 481.482 261.964 502.355C262.524 504.774 261.228 507.293 258.883 508.111C258.846 508.121 258.81 508.139 258.773 508.148C257.118 508.7 255.711 508.01 254.662 507.082C253.449 506.006 252.658 504.525 252.29 502.944L209.743 316.95C209.743 316.95 209.743 313.272 207.288 314.495C204.833 315.718 203.61 316.95 203.61 316.95L196.254 308.371L220.769 283.856L365.383 386.807L360.482 392.931L225.237 299.948L225.256 299.957Z" stroke="url(#A)"/><path d="M253.871 517.941C268.086 517.941 279.609 506.418 279.609 492.204C279.609 477.989 268.086 466.466 253.871 466.466C239.657 466.466 228.134 477.989 228.134 492.204C228.134 506.418 239.657 517.941 253.871 517.941Z" stroke="url(#B)"/><path d="M313.926 481.179C313.926 481.179 235.49 454.218 240.391 441.961C245.292 429.704 263.674 438.283 268.575 439.506C273.476 440.729 285.733 438.283 289.412 435.828C293.09 433.372 295.536 437.051 295.536 437.051C295.536 437.051 288.179 461.565 322.496 460.333C322.496 460.333 324.951 468.912 313.917 481.17L313.926 481.179Z" stroke="url(#C)"/><path d="M315.361 479.505C315.361 479.505 253.881 456.664 240.392 441.952" stroke="url(#D)"/><path d="M253.871 434.604C253.871 434.604 250.202 445.234 251.425 450.338" stroke="url(#E)"/><path d="M275.932 460.342C275.932 460.342 280.833 455.441 293.09 460.342C305.347 465.243 315.15 470.144 315.15 470.144" stroke="url(#F)"/><path d="M271.343 439.827C271.343 439.827 269.807 444.407 271.039 448.085" stroke="url(#G)"/><path d="M275.931 439.827C275.931 439.827 274.708 444.406 275.931 448.085" stroke="url(#H)"/><path d="M281.457 438.632C281.457 438.632 279.609 441.951 282.064 448.085" stroke="url(#I)"/><path d="M295.545 437.059C295.545 437.059 300.446 437.059 304.124 417.455C307.802 397.851 307.802 323.084 309.025 319.415C310.248 315.746 311.48 302.256 334.763 304.711C358.045 307.167 413.199 309.613 413.199 309.613C413.199 309.613 434.035 361.088 429.134 379.469C429.134 379.469 345.797 352.509 339.673 346.375C339.673 346.375 333.549 388.048 327.416 412.554C321.283 437.059 327.416 449.317 322.515 460.351" stroke="url(#J)"/><path d="M382.56 357.391L251.178 498.024L258.782 508.139L392.362 362.293L382.56 357.391Z" stroke="url(#K)"/><path d="M430.357 379.451C430.357 379.451 372.758 423.57 360.5 430.926C348.243 438.283 333.54 467.689 310.248 484.848C286.965 502.006 283.287 515.486 282.064 517.942L266.129 504.461C266.129 504.461 324.951 430.927 327.406 426.025C329.862 421.124 387.047 359.645 387.047 359.645L430.348 379.46L430.357 379.451Z" stroke="url(#L)"/><path d="M235.49 515.486C235.49 515.486 222.01 516.709 223.233 522.843C224.456 528.967 278.386 537.546 282.055 535.1C285.733 532.645 286.956 525.298 285.733 521.62C284.51 517.942 282.055 517.942 282.055 517.942L270.552 508.333C270.552 508.333 261.219 514.263 235.49 515.486Z" stroke="url(#M)"/><path d="M224.078 519.698C224.078 519.698 256.354 531.661 284.528 532.157" stroke="url(#N)"/><path d="M357.972 391.194L377.659 552.258L383.783 547.357L365.401 386.807L357.972 391.194Z" stroke="url(#O)"/><path d="M378.882 532.645L259.628 492.204L260.005 497.105L378.882 538.778V532.645Z" stroke="url(#P)"/><path d="M378.882 544.902L260.005 497.105V503.238L378.882 552.258V544.902Z" stroke="url(#Q)"/><path d="M303.104 492.204L382.431 535.532" stroke="url(#R)"/><path d="M285.743 521.62L377.659 552.258" stroke="url(#S)"/><path d="M249.43 490.401L237.945 486.08L244.069 505.684L251.426 497.105L249.43 490.401Z" stroke="url(#T)"/><path d="M201.174 314.496L197.496 309.595C197.496 309.595 195.041 313.273 190.14 313.273C190.14 313.273 181.561 314.496 180.338 316.951L182.793 319.406C182.793 319.406 185.248 318.183 186.471 321.861C187.694 325.539 105.58 395.396 105.58 395.396L111.704 401.52L195.473 324.445C195.473 324.445 197.487 323.084 196.264 318.174L201.165 314.496H201.174Z" stroke="url(#U)"/><path d="M413.199 309.594C413.199 309.594 411.976 308.371 416.877 304.693C421.778 301.015 411.976 301.015 426.679 293.659C426.679 293.659 420.555 291.203 423.001 280.178C423.001 280.178 418.1 248.317 402.164 233.604C386.229 218.901 394.808 191.931 394.808 191.931C394.808 191.931 385.006 184.575 377.65 187.03C377.65 187.03 371.526 189.485 370.293 187.03C370.293 187.03 367.838 172.327 366.615 167.425C366.615 167.425 386.22 152.722 408.288 155.168C408.288 155.168 403.387 188.262 407.065 201.742C407.065 201.742 435.249 171.104 441.382 149.044C441.382 149.044 457.318 142.92 462.219 144.143C462.219 144.143 443.837 157.623 462.219 171.104C480.6 184.584 483.055 176.005 483.055 176.005C483.055 176.005 497.759 259.342 497.759 278.955C497.759 298.569 496.536 308.371 498.982 319.396C501.437 330.431 501.437 334.099 498.982 337.778C496.526 341.456 497.759 345.134 494.08 347.58C490.402 350.035 491.625 351.258 489.179 354.936C486.724 358.614 483.055 364.738 480.6 365.97C478.145 367.193 467.12 380.674 430.348 379.451C430.348 379.451 430.348 345.134 413.189 309.594H413.199Z" stroke="url(#V)"/><path d="M483.056 173.559C483.056 173.559 496.536 161.302 500.214 156.401C500.214 156.401 522.274 139.242 529.63 129.44C536.986 119.638 538.209 119.638 538.209 119.638C538.209 119.638 548.011 112.281 551.689 113.514C551.689 113.514 557.813 114.737 557.813 113.514C557.813 112.291 556.591 109.836 552.912 109.836C549.234 109.836 540.655 108.613 539.432 104.934" stroke="url(#W)"/><path d="M462.219 144.143C462.219 144.143 483.055 138.019 490.402 135.564C490.402 135.564 496.526 128.208 501.437 125.762C506.338 123.307 529.62 114.728 529.62 114.728C529.62 114.728 534.521 92.6681 536.977 90.213C539.432 87.7578 543.101 77.9556 551.68 80.4108C560.259 82.8659 559.036 84.0889 557.804 85.3119C556.572 86.5348 551.68 84.0889 551.68 84.0889C551.68 84.0889 544.324 87.767 544.324 92.6681" stroke="url(#X)"/><path d="M558.678 84.1992C558.678 84.1992 565.16 90.2221 563.937 91.4543C562.714 92.6865 560.259 90.2313 559.036 90.2313C557.813 90.2313 554.135 89.0084 554.135 89.0084C554.135 89.0084 550.457 91.4635 550.457 95.1324" stroke="url(#Y)"/><path d="M563.938 91.4453C563.938 91.4453 570.062 96.3464 568.839 97.5694C567.616 98.7924 561.482 95.1142 560.26 95.1142C559.037 95.1142 556.581 96.3372 555.358 100.015" stroke="url(#Z)"/><path d="M562.715 96.3553C562.715 96.3553 568.839 98.8105 568.839 101.256C568.839 103.702 565.161 100.033 562.715 100.033C560.269 100.033 554.136 102.489 554.136 104.935C554.136 107.381 553.694 109.882 553.694 109.882" stroke="url(#a)"/><path d="M228.143 225.034C228.143 225.034 228.143 231.158 229.366 231.158C230.589 231.158 233.044 228.703 233.044 228.703" stroke="url(#b)"/><path d="M229.366 231.159C229.366 231.159 229.366 233.614 230.589 233.614C231.812 233.614 233.044 229.936 234.267 229.936C235.49 229.936 237.945 232.391 239.168 233.614C240.391 234.837 237.945 237.292 237.945 237.292C237.945 237.292 237.945 239.747 241.623 238.515C245.301 237.283 251.425 226.258 252.657 225.035C253.89 223.812 282.073 212.777 288.197 211.554C294.321 210.331 315.158 209.099 317.613 207.876C320.068 206.653 331.093 199.297 331.093 199.297C331.093 199.297 369.088 189.495 370.311 187.04L366.633 169.477C366.633 169.477 333.539 177.237 327.415 180.916C327.415 180.916 321.291 184.594 320.059 184.594C318.827 184.594 321.282 184.594 321.282 184.594C321.282 184.594 307.802 184.594 305.346 185.817C302.891 187.04 240.391 216.455 236.713 218.91C233.035 221.366 226.91 222.589 228.133 225.035C228.685 226.129 230.589 223.812 230.589 223.812" stroke="url(#c)"/><path d="M228.575 228.501C228.575 228.501 229.366 228.713 231.812 226.258" stroke="url(#d)"/><path d="M220.786 283.857L245.292 259.352L248.97 264.253L228.575 288.767L220.786 283.857Z" stroke="url(#e)"/><path d="M245.292 259.351L235.49 247.094L230.589 248.317L242.432 262.211L245.292 259.351Z" stroke="url(#f)"/><path d="M239.168 258.128C239.168 258.128 247.747 260.583 256.326 269.162L264.906 277.742L260.005 280.197C260.005 280.197 245.706 266.303 240.602 264.059L239.177 258.137L239.168 258.128Z" stroke="url(#g)"/><path d="M230.589 248.317L233.044 226.258L240.391 227.49L235.49 247.094L230.589 248.317Z" stroke="url(#h)"/><path d="M168.09 326.753L105.58 383.129L110.49 389.263L172.991 331.654L168.09 326.753Z" stroke="url(#i)"/><path d="M182.792 319.406C182.792 319.406 141.119 282.643 87.1975 294.891C33.2763 307.148 -10.8428 353.713 3.8605 413.768C18.5638 473.822 79.8413 488.526 121.514 481.169C163.187 473.813 208.53 433.372 207.307 389.253C206.084 345.134 188.925 327.976 182.792 319.397V319.406Z" stroke="url(#j)"/><path d="M175.152 334.137C175.152 334.137 158.287 308.372 108.035 305.917C57.7827 303.461 6.3166 356.169 17.3418 403.957C28.3761 451.754 68.8171 476.269 115.382 470.135C161.956 464.011 196.273 424.803 196.273 380.674C196.273 352.491 175.142 334.137 175.142 334.137H175.152Z" stroke="url(#k)"/><path d="M108.034 406.421C112.097 406.421 115.39 403.127 115.39 399.065C115.39 395.002 112.097 391.708 108.034 391.708C103.971 391.708 100.678 395.002 100.678 399.065C100.678 403.127 103.971 406.421 108.034 406.421Z" stroke="url(#l)"/><path d="M105.58 391.709C109.643 391.709 112.936 388.415 112.936 384.352C112.936 380.29 109.643 376.996 105.58 376.996C101.517 376.996 98.2236 380.29 98.2236 384.352C98.2236 388.415 101.517 391.709 105.58 391.709Z" stroke="url(#m)"/><path d="M382.56 554.704C385.267 554.704 387.461 552.51 387.461 549.803C387.461 547.096 385.267 544.902 382.56 544.902C379.853 544.902 377.659 547.096 377.659 549.803C377.659 552.51 379.853 554.704 382.56 554.704Z" stroke="url(#n)"/><path d="M382.56 540.001C385.267 540.001 387.461 537.807 387.461 535.1C387.461 532.393 385.267 530.199 382.56 530.199C379.853 530.199 377.659 532.393 377.659 535.1C377.659 537.807 379.853 540.001 382.56 540.001Z" stroke="url(#o)"/><path d="M387.461 532.148V549.803" stroke="url(#p)"/><path d="M339.664 466.466C339.664 466.466 361.724 448.085 409.521 457.887C457.318 467.689 480.6 511.808 474.476 560.837C468.352 609.858 415.654 635.595 380.105 633.149C344.565 630.694 300.446 608.635 293.09 549.812C285.734 490.99 339.664 466.475 339.664 466.475V466.466Z" stroke="url(#q)"/><path d="M348.243 443.956C348.243 443.956 387.461 427.248 434.035 448.085C480.609 468.921 501.437 528.976 485.51 575.541C469.575 622.115 420.555 650.299 377.659 646.62C334.763 642.942 284.519 614.759 278.386 554.704C272.262 494.65 309.025 459.432 348.243 443.947V443.956Z" stroke="url(#r)"/><path d="M444.389 103.629C445.373 106.847 446.375 110.121 446.384 113.486C446.384 114.985 446.2 116.484 446.007 117.964C444.72 127.886 443 138.534 436.012 145.688C432.067 149.734 426.817 152.217 421.575 154.332C418.734 155.472 415.497 156.529 412.702 155.279C411.479 154.736 410.486 153.798 409.52 152.87C405.851 149.366 402.118 145.633 400.426 140.851C399.847 139.224 399.525 137.513 398.881 135.913C398.146 134.102 397.006 132.484 396.196 130.709C393.033 123.803 395.157 115.794 395.737 108.226C396.068 103.914 395.875 99.5644 396.537 95.2886C397.199 91.0128 398.854 86.7002 402.164 83.914C405.3 81.2842 409.511 80.3462 413.575 79.8773C417.171 79.4635 420.794 79.3439 424.417 79.2244C430.513 79.0221 433.833 81.2474 437.171 86.2404C440.674 91.4909 442.568 97.6242 444.398 103.601L444.389 103.629Z" stroke="url(#s)"/><path d="M421.722 103.62C425.06 102.903 428.49 102.599 431.91 102.719C432.701 102.746 433.492 102.801 434.246 102.995C437.198 103.767 439.129 106.535 440.784 109.1C438.963 109.036 437.382 107.923 435.736 107.151C432.959 105.845 429.75 105.496 426.752 106.167C425.014 106.553 420.536 108.935 418.936 107.546C416.812 105.698 420.223 103.942 421.713 103.629L421.722 103.62Z" stroke="url(#t)"/><path d="M398.099 104.696C397.327 104.971 396.481 105.45 396.361 106.259C399.111 107.105 402.016 106.811 404.83 107.188C405.998 107.344 410.605 109.569 411.101 108.374C411.837 106.617 407.405 104.824 406.412 104.53C403.718 103.721 400.757 103.749 398.099 104.696Z" stroke="url(#u)"/><path d="M421.925 124.3C422.706 124.833 423.065 125.918 422.752 126.81C422.44 127.702 421.483 128.327 420.536 128.263C419.782 128.208 418.292 127.068 417.538 126.976C417.345 126.948 417.143 126.939 416.978 127.04C416.803 127.141 416.729 127.344 416.647 127.527C416.049 128.842 414.679 129.762 413.235 129.826C412.867 129.845 412.481 129.799 412.159 129.615C411.764 129.394 411.608 128.925 411.203 128.741C410.697 128.511 410.053 129.026 409.41 128.585C408.895 128.235 408.564 127.665 408.316 127.086C408.122 126.636 407.957 126.157 408.031 125.67C408.168 124.778 409.024 124.208 409.667 123.564C410.596 122.645 411.166 121.376 411.249 120.07" stroke="url(#v)"/><path d="M418.274 114.397C417.732 118.341 420.389 122.323 424.03 123.932C427.672 125.541 432.03 125.017 435.561 123.169C436.177 122.847 436.793 122.47 437.244 121.937C437.805 121.265 438.053 120.401 438.283 119.555C438.697 117.973 438.734 115.877 439.414 114.415C439.681 113.836 440.15 113.357 440.674 112.999C440.867 112.861 442.55 112.291 442.55 112.272C442.669 111.895 442.908 110.636 442.43 110.378C442.108 110.213 441.603 110.774 441.281 110.792C439.837 110.893 438.209 109.872 436.839 109.449C433.547 108.438 430.035 108.53 426.587 108.64C424.821 108.695 423.028 108.76 421.373 109.376C419.727 110.001 418.219 111.298 417.833 113.017C415.405 112.18 412.72 112.144 410.265 112.907L410.072 113.808C409.713 112.649 408.674 111.813 407.534 111.408C406.394 111.003 405.171 110.957 403.957 110.939C400.996 110.893 397.971 110.967 395.175 111.951C393.015 112.714 391.01 114.02 388.739 114.341C388.251 114.93 388.969 115.785 389.695 116.042C390.421 116.3 391.304 116.401 391.681 117.072C391.369 115.647 392.288 114.185 393.52 113.403C394.752 112.622 396.233 112.374 397.677 112.144L402.302 111.399C403.12 111.27 403.948 111.132 404.775 111.233C406.614 111.454 408.104 112.741 409.667 113.734C409.833 113.845 410.007 113.946 410.21 113.974C410.522 114.01 410.826 113.836 411.111 113.688C412.49 112.99 414.109 113.008 415.663 113.036C416.04 113.036 416.453 113.063 416.748 113.293C416.904 113.413 417.023 113.587 417.198 113.679C417.778 113.992 418.338 113.284 418.706 112.741C420.499 110.13 424.122 109.707 427.285 109.523C430.108 109.357 432.959 109.201 435.764 109.624C436.674 109.762 437.649 110.001 438.246 110.7C439.074 111.675 438.89 113.155 439.469 114.286" stroke="url(#w)"/><path d="M391.764 117.302C392.371 119.04 393.023 120.787 394.026 122.332C395.028 123.877 396.426 125.229 398.145 125.881C399.405 126.36 400.784 126.442 402.136 126.406C403.911 126.36 405.722 126.102 407.322 125.33C408.922 124.557 410.311 123.206 410.816 121.504C411.065 120.686 411.101 119.822 411.065 118.966C410.991 117.357 410.642 115.757 410.035 114.268" stroke="url(#x)"/><path d="M420.296 134.185C419.404 134.102 418.466 134.029 417.639 134.396C417.326 134.534 417.041 134.727 416.719 134.819C416.039 135.022 415.322 134.783 414.632 134.626C411.487 133.9 408.241 134.957 405.188 135.996L417.998 136.235C419.929 136.272 421.869 136.309 423.781 136.07C425.547 135.849 427.395 135.573 429.124 135.196C428.186 134.589 426.053 134.773 424.922 134.663L420.306 134.194L420.296 134.185Z" stroke="url(#y)"/><path d="M426.007 138.709L423.92 140.199C423.028 140.833 422.127 141.477 421.134 141.937C419.92 142.497 418.596 142.764 417.263 142.856C416.334 142.92 415.387 142.902 414.486 142.654C413.557 142.406 412.711 141.918 411.865 141.44L409.529 140.116C407.791 139.123 405.971 138.056 404.996 136.3C406.991 136.401 408.601 137.872 410.375 138.773C414.072 140.658 418.532 140.07 422.522 138.92C425.014 138.203 426.982 137.164 429.005 135.592C429.125 136.723 426.817 138.111 425.998 138.7L426.007 138.709Z" stroke="url(#z)"/><path d="M443.147 112.263L449.639 111.638C450.273 111.573 450.926 111.509 451.45 111.15C451.974 110.792 452.002 110.516 451.671 109.982C448.784 110.093 445.905 110.249 443.027 110.461" stroke="url(#AA)"/><path d="M448.784 114.452C449.234 112.888 451.202 112.438 452.821 112.254C453.308 112.199 453.823 112.153 454.273 112.346C454.972 112.64 455.312 113.431 455.506 114.157C455.929 115.785 455.901 117.532 455.423 119.15C454.678 121.697 452.867 123.849 452.278 126.433C452.122 127.132 452.048 127.858 451.827 128.539C451.211 130.433 449.336 131.84 447.349 131.913C446.982 131.923 446.595 131.886 446.301 131.665C446.099 131.509 445.961 131.288 445.841 131.067C445.382 130.231 445.014 129.348 444.747 128.428" stroke="url(#AB)"/><path d="M422.375 60.227C422.09 59.5005 421.207 59.2431 420.435 59.1419C415.957 58.5442 411.378 59.8867 407.479 62.1856C403.589 64.4752 400.297 67.666 397.244 70.9947C396.279 72.0429 395.323 73.1372 394.753 74.4429C394.063 76.0337 394.017 77.8268 393.364 79.4359C391.92 83.0221 387.994 84.8152 384.435 86.314C380.877 87.8221 376.978 89.7715 375.755 93.4312C375.222 95.0496 375.295 96.7967 375.029 98.4702C374.192 103.73 370.072 108.061 369.383 113.339C369.217 114.571 369.236 115.868 368.675 116.98C367.875 118.553 366.072 119.353 364.334 119.684C362.597 120.006 360.794 119.969 359.093 120.438C353.705 121.927 350.863 128.18 351.139 133.771C351.222 135.454 351.507 137.219 350.79 138.746C349.907 140.64 347.792 141.55 346.091 142.773C344.399 143.996 342.946 146.323 344.096 148.079C348.978 143.941 353.539 139.444 357.741 134.617C360.73 131.187 364.114 127.297 368.656 127.16C369.705 127.132 370.799 127.297 371.764 126.902C372.399 126.645 372.923 126.157 373.401 125.661C379.121 119.785 381.741 111.665 385.07 104.181C388.408 96.6863 393.235 89.045 400.969 86.3416" stroke="url(#AC)"/><path d="M421.989 59.9324C433.575 56.6038 450.108 67.3255 456.223 78.1208C462.301 88.8517 460.416 102.176 463.01 114.24C463.782 117.863 464.968 121.375 466.154 124.888L470.752 138.497C471.754 141.458 472.757 144.446 472.968 147.564C473.198 150.902 472.508 154.239 472.343 157.577C471.819 167.766 476.067 177.513 480.223 186.828C474.991 185.669 471.8 178.386 466.522 179.315C465.869 181.43 465.051 183.683 463.221 184.933C460.61 186.717 456.793 185.651 454.669 183.297C452.545 180.943 451.773 177.687 451.387 174.543C451.203 173.007 451.065 171.389 450.164 170.138C449.263 168.888 447.286 168.271 446.164 169.329C444.702 166.055 443.957 162.469 444.003 158.883C441.29 160.676 440.122 164.097 439.883 167.334C439.644 170.57 440.132 173.835 439.874 177.071C439.368 183.508 435.929 189.614 436.444 196.041C435.405 197.384 433.06 196.805 432.132 195.379C431.203 193.954 431.249 192.124 431.313 190.423C431.534 185.145 431.598 179.71 429.75 174.763C429.198 173.301 428.481 171.885 428.095 170.368C427.442 167.784 427.773 165.062 428.123 162.414L429.483 151.922" stroke="url(#AD)"/><path d="M350.413 163.095C354.422 153.385 360.739 145.1 358.818 134.663" stroke="url(#AE)"/><path d="M397.548 134.626C393.594 143.996 390.476 152.989 390.495 163.279C390.495 163.279 389.594 186.938 389.005 187.71C388.748 188.051 388.6 188.639 388.407 189.025L387.727 188.069C385.75 185.274 384.555 181.568 383.083 178.478C381.667 179.527 381.447 181.513 381.189 183.26C380.932 185.007 380.251 187.021 378.55 187.499C376.168 184.244 374.191 180.694 372.674 176.961C372.472 176.455 372.27 175.931 372.251 175.38C372.196 173.853 373.309 171.821 371.957 171.131C368.932 172.391 367.617 175.959 367.185 179.214C366.752 182.469 366.817 185.917 365.208 188.777C364.867 189.384 364.435 189.991 364.398 190.69C364.343 191.766 365.217 192.63 365.686 193.605C366.725 195.756 365.428 198.69 363.13 199.361C360.215 197.816 358.559 194.202 359.286 190.984C359.672 189.274 360.647 187.499 359.966 185.881C358.477 185.881 356.987 185.448 355.736 184.639C355.635 183.71 356.38 182.929 356.923 182.166C357.465 181.402 357.787 180.198 357.024 179.637C356.812 179.481 356.536 179.407 356.279 179.361C353.677 178.883 350.854 180.373 349.76 182.773C349.052 184.327 349.052 186.101 348.693 187.775C348.334 189.448 347.424 191.214 345.787 191.701C345.281 191.848 344.702 191.848 344.279 191.554C343.948 191.324 343.755 190.947 343.608 190.57C342.753 188.281 343.635 185.715 344.812 183.573C345.98 181.43 347.47 179.38 347.939 176.98C348.435 174.442 347.718 171.849 347.635 169.265C347.543 166.681 348.389 163.711 350.762 162.69" stroke="url(#AF)"/></g><defs><linearGradient id="A" x1="280.818" y1="283.856" x2="280.818" y2="508.345" xlink:href="#AG"><stop stop-color="#dfa45c"/><stop offset=".525" stop-color="#dfa45c" stop-opacity=".642"/><stop offset="1" stop-color="#dfa45c" stop-opacity="0"/></linearGradient><linearGradient id="B" x1="253.871" y1="466.466" x2="253.871" y2="517.941" xlink:href="#AG"><stop stop-color="#dfa45c"/><stop offset=".525" stop-color="#dfa45c" stop-opacity=".642"/><stop offset="1" stop-color="#dfa45c" stop-opacity="0"/></linearGradient><linearGradient id="C" x1="281.45" y1="434.983" x2="281.45" y2="481.179" xlink:href="#AG"><stop stop-color="#dfa45c"/><stop offset=".525" stop-color="#dfa45c" stop-opacity=".642"/><stop offset="1" stop-color="#dfa45c" stop-opacity="0"/></linearGradient><linearGradient id="D" x1="277.876" y1="441.952" x2="277.876" y2="479.505" xlink:href="#AG"><stop stop-color="#dfa45c"/><stop offset=".525" stop-color="#dfa45c" stop-opacity=".642"/><stop offset="1" stop-color="#dfa45c" stop-opacity="0"/></linearGradient><linearGradient id="E" x1="252.524" y1="434.604" x2="252.524" y2="450.338" xlink:href="#AG"><stop stop-color="#dfa45c"/><stop offset=".525" stop-color="#dfa45c" stop-opacity=".642"/><stop offset="1" stop-color="#dfa45c" stop-opacity="0"/></linearGradient><linearGradient id="F" x1="295.541" y1="458.164" x2="295.541" y2="470.144" xlink:href="#AG"><stop stop-color="#dfa45c"/><stop offset=".525" stop-color="#dfa45c" stop-opacity=".642"/><stop offset="1" stop-color="#dfa45c" stop-opacity="0"/></linearGradient><linearGradient id="G" x1="270.952" y1="439.827" x2="270.952" y2="448.085" xlink:href="#AG"><stop stop-color="#dfa45c"/><stop offset=".525" stop-color="#dfa45c" stop-opacity=".642"/><stop offset="1" stop-color="#dfa45c" stop-opacity="0"/></linearGradient><linearGradient id="H" x1="275.659" y1="439.827" x2="275.659" y2="448.085" xlink:href="#AG"><stop stop-color="#dfa45c"/><stop offset=".525" stop-color="#dfa45c" stop-opacity=".642"/><stop offset="1" stop-color="#dfa45c" stop-opacity="0"/></linearGradient><linearGradient id="I" x1="281.427" y1="438.632" x2="281.427" y2="448.085" xlink:href="#AG"><stop stop-color="#dfa45c"/><stop offset=".525" stop-color="#dfa45c" stop-opacity=".642"/><stop offset="1" stop-color="#dfa45c" stop-opacity="0"/></linearGradient><linearGradient id="J" x1="362.713" y1="304.415" x2="362.713" y2="460.351" xlink:href="#AG"><stop stop-color="#dfa45c"/><stop offset=".525" stop-color="#dfa45c" stop-opacity=".642"/><stop offset="1" stop-color="#dfa45c" stop-opacity="0"/></linearGradient><linearGradient id="K" x1="321.77" y1="357.391" x2="321.77" y2="508.139" xlink:href="#AG"><stop stop-color="#dfa45c"/><stop offset=".525" stop-color="#dfa45c" stop-opacity=".642"/><stop offset="1" stop-color="#dfa45c" stop-opacity="0"/></linearGradient><linearGradient id="L" x1="348.243" y1="359.645" x2="348.243" y2="517.942" xlink:href="#AG"><stop stop-color="#dfa45c"/><stop offset=".525" stop-color="#dfa45c" stop-opacity=".642"/><stop offset="1" stop-color="#dfa45c" stop-opacity="0"/></linearGradient><linearGradient id="M" x1="254.673" y1="508.333" x2="254.673" y2="535.528" xlink:href="#AG"><stop stop-color="#dfa45c"/><stop offset=".525" stop-color="#dfa45c" stop-opacity=".642"/><stop offset="1" stop-color="#dfa45c" stop-opacity="0"/></linearGradient><linearGradient id="N" x1="254.303" y1="519.698" x2="254.303" y2="532.157" xlink:href="#AG"><stop stop-color="#dfa45c"/><stop offset=".525" stop-color="#dfa45c" stop-opacity=".642"/><stop offset="1" stop-color="#dfa45c" stop-opacity="0"/></linearGradient><linearGradient id="O" x1="370.877" y1="386.807" x2="370.877" y2="552.258" xlink:href="#AG"><stop stop-color="#dfa45c"/><stop offset=".525" stop-color="#dfa45c" stop-opacity=".642"/><stop offset="1" stop-color="#dfa45c" stop-opacity="0"/></linearGradient><linearGradient id="P" x1="319.255" y1="492.204" x2="319.255" y2="538.778" xlink:href="#AG"><stop stop-color="#dfa45c"/><stop offset=".525" stop-color="#dfa45c" stop-opacity=".642"/><stop offset="1" stop-color="#dfa45c" stop-opacity="0"/></linearGradient><linearGradient id="Q" x1="319.443" y1="497.105" x2="319.443" y2="552.258" xlink:href="#AG"><stop stop-color="#dfa45c"/><stop offset=".525" stop-color="#dfa45c" stop-opacity=".642"/><stop offset="1" stop-color="#dfa45c" stop-opacity="0"/></linearGradient><linearGradient id="R" x1="342.767" y1="492.204" x2="342.767" y2="535.532" xlink:href="#AG"><stop stop-color="#dfa45c"/><stop offset=".525" stop-color="#dfa45c" stop-opacity=".642"/><stop offset="1" stop-color="#dfa45c" stop-opacity="0"/></linearGradient><linearGradient id="S" x1="331.701" y1="521.62" x2="331.701" y2="552.258" xlink:href="#AG"><stop stop-color="#dfa45c"/><stop offset=".525" stop-color="#dfa45c" stop-opacity=".642"/><stop offset="1" stop-color="#dfa45c" stop-opacity="0"/></linearGradient><linearGradient id="T" x1="244.685" y1="486.08" x2="244.685" y2="505.684" xlink:href="#AG"><stop stop-color="#dfa45c"/><stop offset=".525" stop-color="#dfa45c" stop-opacity=".642"/><stop offset="1" stop-color="#dfa45c" stop-opacity="0"/></linearGradient><linearGradient id="U" x1="153.377" y1="309.595" x2="153.377" y2="401.52" xlink:href="#AG"><stop stop-color="#dfa45c"/><stop offset=".525" stop-color="#dfa45c" stop-opacity=".642"/><stop offset="1" stop-color="#dfa45c" stop-opacity="0"/></linearGradient><linearGradient id="V" x1="433.719" y1="143.981" x2="433.719" y2="379.529" xlink:href="#AG"><stop stop-color="#dfa45c"/><stop offset=".525" stop-color="#dfa45c" stop-opacity=".642"/><stop offset="1" stop-color="#dfa45c" stop-opacity="0"/></linearGradient><linearGradient id="W" x1="520.435" y1="104.934" x2="520.435" y2="173.559" xlink:href="#AG"><stop stop-color="#dfa45c"/><stop offset=".525" stop-color="#dfa45c" stop-opacity=".642"/><stop offset="1" stop-color="#dfa45c" stop-opacity="0"/></linearGradient><linearGradient id="X" x1="510.447" y1="80.019" x2="510.447" y2="144.143" xlink:href="#AG"><stop stop-color="#dfa45c"/><stop offset=".525" stop-color="#dfa45c" stop-opacity=".642"/><stop offset="1" stop-color="#dfa45c" stop-opacity="0"/></linearGradient><linearGradient id="Y" x1="557.274" y1="84.199" x2="557.274" y2="95.132" xlink:href="#AG"><stop stop-color="#dfa45c"/><stop offset=".525" stop-color="#dfa45c" stop-opacity=".642"/><stop offset="1" stop-color="#dfa45c" stop-opacity="0"/></linearGradient><linearGradient id="Z" x1="562.179" y1="91.445" x2="562.179" y2="100.015" xlink:href="#AG"><stop stop-color="#dfa45c"/><stop offset=".525" stop-color="#dfa45c" stop-opacity=".642"/><stop offset="1" stop-color="#dfa45c" stop-opacity="0"/></linearGradient><linearGradient id="a" x1="561.267" y1="96.355" x2="561.267" y2="109.882" xlink:href="#AG"><stop stop-color="#dfa45c"/><stop offset=".525" stop-color="#dfa45c" stop-opacity=".642"/><stop offset="1" stop-color="#dfa45c" stop-opacity="0"/></linearGradient><linearGradient id="b" x1="230.593" y1="225.034" x2="230.593" y2="231.158" xlink:href="#AG"><stop stop-color="#dfa45c"/><stop offset=".525" stop-color="#dfa45c" stop-opacity=".642"/><stop offset="1" stop-color="#dfa45c" stop-opacity="0"/></linearGradient><linearGradient id="c" x1="299.143" y1="169.477" x2="299.143" y2="238.861" xlink:href="#AG"><stop stop-color="#dfa45c"/><stop offset=".525" stop-color="#dfa45c" stop-opacity=".642"/><stop offset="1" stop-color="#dfa45c" stop-opacity="0"/></linearGradient><linearGradient id="d" x1="230.194" y1="226.258" x2="230.194" y2="228.506" xlink:href="#AG"><stop stop-color="#dfa45c"/><stop offset=".525" stop-color="#dfa45c" stop-opacity=".642"/><stop offset="1" stop-color="#dfa45c" stop-opacity="0"/></linearGradient><linearGradient id="e" x1="234.878" y1="259.352" x2="234.878" y2="288.767" xlink:href="#AG"><stop stop-color="#dfa45c"/><stop offset=".525" stop-color="#dfa45c" stop-opacity=".642"/><stop offset="1" stop-color="#dfa45c" stop-opacity="0"/></linearGradient><linearGradient id="f" x1="237.941" y1="247.094" x2="237.941" y2="262.211" xlink:href="#AG"><stop stop-color="#dfa45c"/><stop offset=".525" stop-color="#dfa45c" stop-opacity=".642"/><stop offset="1" stop-color="#dfa45c" stop-opacity="0"/></linearGradient><linearGradient id="g" x1="252.037" y1="258.128" x2="252.037" y2="280.197" xlink:href="#AG"><stop stop-color="#dfa45c"/><stop offset=".525" stop-color="#dfa45c" stop-opacity=".642"/><stop offset="1" stop-color="#dfa45c" stop-opacity="0"/></linearGradient><linearGradient id="h" x1="235.49" y1="226.258" x2="235.49" y2="248.317" xlink:href="#AG"><stop stop-color="#dfa45c"/><stop offset=".525" stop-color="#dfa45c" stop-opacity=".642"/><stop offset="1" stop-color="#dfa45c" stop-opacity="0"/></linearGradient><linearGradient id="i" x1="139.285" y1="326.753" x2="139.285" y2="389.263" xlink:href="#AG"><stop stop-color="#dfa45c"/><stop offset=".525" stop-color="#dfa45c" stop-opacity=".642"/><stop offset="1" stop-color="#dfa45c" stop-opacity="0"/></linearGradient><linearGradient id="j" x1="104.165" y1="292.392" x2="104.165" y2="482.913" xlink:href="#AG"><stop stop-color="#dfa45c"/><stop offset=".525" stop-color="#dfa45c" stop-opacity=".642"/><stop offset="1" stop-color="#dfa45c" stop-opacity="0"/></linearGradient><linearGradient id="k" x1="106.055" y1="305.834" x2="106.055" y2="471.064" xlink:href="#AG"><stop stop-color="#dfa45c"/><stop offset=".525" stop-color="#dfa45c" stop-opacity=".642"/><stop offset="1" stop-color="#dfa45c" stop-opacity="0"/></linearGradient><linearGradient id="l" x1="108.034" y1="391.708" x2="108.034" y2="406.421" xlink:href="#AG"><stop stop-color="#dfa45c"/><stop offset=".525" stop-color="#dfa45c" stop-opacity=".642"/><stop offset="1" stop-color="#dfa45c" stop-opacity="0"/></linearGradient><linearGradient id="m" x1="105.58" y1="376.996" x2="105.58" y2="391.709" xlink:href="#AG"><stop stop-color="#dfa45c"/><stop offset=".525" stop-color="#dfa45c" stop-opacity=".642"/><stop offset="1" stop-color="#dfa45c" stop-opacity="0"/></linearGradient><linearGradient id="n" x1="382.56" y1="544.902" x2="382.56" y2="554.704" xlink:href="#AG"><stop stop-color="#dfa45c"/><stop offset=".525" stop-color="#dfa45c" stop-opacity=".642"/><stop offset="1" stop-color="#dfa45c" stop-opacity="0"/></linearGradient><linearGradient id="o" x1="382.56" y1="530.199" x2="382.56" y2="540.001" xlink:href="#AG"><stop stop-color="#dfa45c"/><stop offset=".525" stop-color="#dfa45c" stop-opacity=".642"/><stop offset="1" stop-color="#dfa45c" stop-opacity="0"/></linearGradient><linearGradient id="p" x1="387.961" y1="532.148" x2="387.961" y2="549.803" xlink:href="#AG"><stop stop-color="#dfa45c"/><stop offset=".525" stop-color="#dfa45c" stop-opacity=".642"/><stop offset="1" stop-color="#dfa45c" stop-opacity="0"/></linearGradient><linearGradient id="q" x1="383.919" y1="455.009" x2="383.919" y2="633.309" xlink:href="#AG"><stop stop-color="#dfa45c"/><stop offset=".525" stop-color="#dfa45c" stop-opacity=".642"/><stop offset="1" stop-color="#dfa45c" stop-opacity="0"/></linearGradient><linearGradient id="r" x1="384.259" y1="437.618" x2="384.259" y2="646.942" xlink:href="#AG"><stop stop-color="#dfa45c"/><stop offset=".525" stop-color="#dfa45c" stop-opacity=".642"/><stop offset="1" stop-color="#dfa45c" stop-opacity="0"/></linearGradient><linearGradient id="s" x1="420.443" y1="79.212" x2="420.443" y2="155.843" xlink:href="#AG"><stop stop-color="#dfa45c"/><stop offset=".525" stop-color="#dfa45c" stop-opacity=".642"/><stop offset="1" stop-color="#dfa45c" stop-opacity="0"/></linearGradient><linearGradient id="t" x1="429.521" y1="102.693" x2="429.521" y2="109.1" xlink:href="#AG"><stop stop-color="#dfa45c"/><stop offset=".525" stop-color="#dfa45c" stop-opacity=".642"/><stop offset="1" stop-color="#dfa45c" stop-opacity="0"/></linearGradient><linearGradient id="u" x1="403.772" y1="103.952" x2="403.772" y2="108.725" xlink:href="#AG"><stop stop-color="#dfa45c"/><stop offset=".525" stop-color="#dfa45c" stop-opacity=".642"/><stop offset="1" stop-color="#dfa45c" stop-opacity="0"/></linearGradient><linearGradient id="v" x1="415.439" y1="120.07" x2="415.439" y2="129.83" xlink:href="#AG"><stop stop-color="#dfa45c"/><stop offset=".525" stop-color="#dfa45c" stop-opacity=".642"/><stop offset="1" stop-color="#dfa45c" stop-opacity="0"/></linearGradient><linearGradient id="w" x1="415.648" y1="108.575" x2="415.648" y2="124.891" xlink:href="#AG"><stop stop-color="#dfa45c"/><stop offset=".525" stop-color="#dfa45c" stop-opacity=".642"/><stop offset="1" stop-color="#dfa45c" stop-opacity="0"/></linearGradient><linearGradient id="x" x1="401.42" y1="114.268" x2="401.42" y2="126.413" xlink:href="#AG"><stop stop-color="#dfa45c"/><stop offset=".525" stop-color="#dfa45c" stop-opacity=".642"/><stop offset="1" stop-color="#dfa45c" stop-opacity="0"/></linearGradient><linearGradient id="y" x1="417.156" y1="134.117" x2="417.156" y2="136.262" xlink:href="#AG"><stop stop-color="#dfa45c"/><stop offset=".525" stop-color="#dfa45c" stop-opacity=".642"/><stop offset="1" stop-color="#dfa45c" stop-opacity="0"/></linearGradient><linearGradient id="z" x1="417.003" y1="135.592" x2="417.003" y2="142.888" xlink:href="#AG"><stop stop-color="#dfa45c"/><stop offset=".525" stop-color="#dfa45c" stop-opacity=".642"/><stop offset="1" stop-color="#dfa45c" stop-opacity="0"/></linearGradient><linearGradient id="AA" x1="447.458" y1="109.982" x2="447.458" y2="112.263" xlink:href="#AG"><stop stop-color="#dfa45c"/><stop offset=".525" stop-color="#dfa45c" stop-opacity=".642"/><stop offset="1" stop-color="#dfa45c" stop-opacity="0"/></linearGradient><linearGradient id="AB" x1="450.275" y1="112.206" x2="450.275" y2="131.915" xlink:href="#AG"><stop stop-color="#dfa45c"/><stop offset=".525" stop-color="#dfa45c" stop-opacity=".642"/><stop offset="1" stop-color="#dfa45c" stop-opacity="0"/></linearGradient><linearGradient id="AC" x1="383.03" y1="59" x2="383.03" y2="148.079" xlink:href="#AG"><stop stop-color="#dfa45c"/><stop offset=".525" stop-color="#dfa45c" stop-opacity=".642"/><stop offset="1" stop-color="#dfa45c" stop-opacity="0"/></linearGradient><linearGradient id="AD" x1="451.106" y1="59.315" x2="451.106" y2="196.799" xlink:href="#AG"><stop stop-color="#dfa45c"/><stop offset=".525" stop-color="#dfa45c" stop-opacity=".642"/><stop offset="1" stop-color="#dfa45c" stop-opacity="0"/></linearGradient><linearGradient id="AE" x1="354.793" y1="134.663" x2="354.793" y2="163.095" xlink:href="#AG"><stop stop-color="#dfa45c"/><stop offset=".525" stop-color="#dfa45c" stop-opacity=".642"/><stop offset="1" stop-color="#dfa45c" stop-opacity="0"/></linearGradient><linearGradient id="AF" x1="370.407" y1="134.626" x2="370.407" y2="199.361" xlink:href="#AG"><stop stop-color="#dfa45c"/><stop offset=".525" stop-color="#dfa45c" stop-opacity=".642"/><stop offset="1" stop-color="#dfa45c" stop-opacity="0"/></linearGradient><linearGradient id="AG" gradientUnits="userSpaceOnUse"/></defs></svg>