<svg xmlns="http://www.w3.org/2000/svg" width="293" height="46" fill="none" xmlns:v="https://vecta.io/nano"><path d="M38.6 8.62c.04.44.04.92-.24 1.32-.12.12-.16.28-.04.44.04.12-.08.2-.12.32-.32.16-.36.44-.44.76-.04.08.04.12.12.12-.4.32-.64.8-.84 1.28-.24.64-.52 1.28-.88 1.92-.12.2-.16.44-.04.68-.08.28-.2.52-.44.72-.16.16-.28.4-.4.6l-.6 1.44a1.09 1.09 0 0 0-.36.48l-.36.84c-.08.12-.12.24 0 .36.08.04.04.16 0 .2a.48.48 0 0 1-.2.2c-.16.16-.28.32-.16.6.04.12-.04.24-.08.36-.24.56-.48 1.16-.8 1.68 0 .08-.04.16-.08.2-.16.68-.48 1.24-.72 1.84-.08.2-.16.32-.32.48 0-.08 0-.16.04-.24l-.04-.04h-.04c-.04.04-.08.04-.08.08L31 26.38c-.12.2-.16.44-.04.68.04.16 0 .28-.04.44l-.88 2.36c-.12.32-.24.68-.44.96l.12-.68c-.12.16-.2.28-.24.48-.04.08 0 .16.12.16l-.36 1.08c-.04.04-.08.12-.12.12-.08-.04-.08-.08-.08-.16l-.28.76c-.08.16-.16.32.04.48.08.04.04.12 0 .2a2.55 2.55 0 0 1-.32.56c-.08.08-.16.2-.12.32.08.16.04.28-.12.32-.08.04-.16.12-.12.2.08.24-.04.4-.12.64s0 .48 0 .68c.04.2.04.36-.16.4-.12.04-.12.12-.12.16l-.12.56c-.04.12-.04.2-.08.32-.16.28-.52.32-.68.08-.2-.24-.4-.52-.56-.76-.12-.24-.12-.48-.12-.72 0-.44.08-.88.2-1.28l.64-2.4c.16-.6.36-1.12.56-1.68l.52-1.52c.24-.76.56-1.48.84-2.2.24-.56.44-1.12.6-1.68 0-.12.04-.28.12-.36.36-.48.44-1.08.68-1.6.12-.28.2-.56.36-.8s.28-.48.36-.76a2.09 2.09 0 0 1 .24-.64l.72-1.52c.2-.56.48-1.12.72-1.68l1.08-2.28 1-2.04c.08-.12.16-.24.2-.4.2-.56.48-1.12.76-1.64.16-.28.32-.6.44-.92.08-.12.12-.24.12-.4.04-.12.12-.36-.04-.44-.12-.04-.24.12-.36.2l-1.04.84c-.4.4-.88.76-1.28 1.12-.36.28-.68.6-1.04.92-.16.16-.32.28-.52.36.08-.12.2-.24.24-.4-.2.04-.32.2-.48.32-.08-.08-.16-.08-.2 0h.2v.08c.08 0 .16 0 .24.04-.2.2-.4.4-.68.52.16-.16.28-.32.4-.52h-.2v-.08l-.08.08a1.22 1.22 0 0 0-.32.32l-.08.08h.08l-.12.12v-.08c-.04 0-.08.04-.12.08h.12l-.12.12c-.16.24-.44.4-.56.68-.16.04-.28.12-.44.2-.2.32-.48.56-.72.8-.04.04-.16.12 0 .2.36-.4.84-.76 1.16-1.2h.24c-.56.56-1.08 1.2-1.76 1.64-.12-.08-.2-.08-.28 0s-.12.16-.16.24h.2a10.6 10.6 0 0 1-1.64 1.64c-.12-.08-.2-.04-.28.04-.08.04-.12.08-.16.16.08 0 .12.04.2.04-.24.44-.64.76-1 1.08v-.2c-.2.04-.44.08-.56.32-.08.12-.2.2-.32.32l-.12.12h.12l-.12.12c-.12.2-.28.36-.4.56a.83.83 0 0 0-.24.4l.64-.52c-.08.12-.12.24-.24.36l-1.96 2.44-3.48 4.84-1.52 2.32-.6.8-.24.24c-.12.08-.2 0-.24-.2.16-.12.28-.24.32-.4-.16.12-.24.24-.32.4-.08.04-.16.04-.24.08-.36.04-.64-.08-.8-.4-.04-.16-.16-.28-.32-.36-.32-.2-.4-.52-.28-.88.08-.36.2-.72.36-1.08.12-.2.2-.4.28-.6.08-.48.28-.96.52-1.4s.4-.92.56-1.44c.2-.52.36-1.08.68-1.56.32-.6.52-1.24.76-1.88.12-.28.2-.6.36-.88.24-.44.36-.92.56-1.36l.8-1.84.12-.24 1.08-2.76.48-.92c.48-.92.76-1.92 1.2-2.84.4-.8.64-1.6 1-2.4l.2-.68c.08-.24-.04-.44.08-.64-.16-.04-.2 0-.28.08a7.81 7.81 0 0 0-.92.68c-.92.76-1.8 1.6-2.6 2.48-.2.16-.4.4-.6.56l-3 3.24c-.28.32-.52.64-.88.92a4.11 4.11 0 0 1-1 1.2v.04c-.04-.12-.08-.2-.2-.12-.08.04-.12.08-.16.12s-.04.12-.04.16c.04.08.12.04.2.04-.12.32-.36.56-.56.8-.24.36-.48.64-.72.96-.16.2-.32.36-.52.44l.12-.44c-.28.32-.6.6-.76 1 0 .04-.04.04-.08.08v.04c0 .04.04 0 .04-.04s.04-.04.04-.08l.68-.56c-.12.16-.2.32-.28.48l-1.16 1.56-2.08 2.92-3.6 5.2-2.52 3.84-.76 1c-.08.12-.16.2-.32.24-.04 0-.12 0-.12-.08 0-.16.04-.24-.2-.16-.4.2-.64.12-.84-.32-.08-.2-.2-.36-.4-.48-.2-.16-.32-.36-.32-.64 0-.2 0-.44.04-.64.12-.44.2-.92.4-1.32l.68-2.04c0-.08.04-.2.08-.28.2-.36.32-.72.44-1.12l.72-2.2c0-.04 0-.08.04-.12.36-.68.52-1.44.76-2.16.12-.32.2-.68.4-.96.04-.08.08-.16.08-.2.08-.56.36-1.04.48-1.6.12-.32.16-.64.28-.96l.4-1.2c.32-.72.48-1.48.72-2.24l.12-.48c.32-.92.48-1.88.76-2.76.28-.92.44-1.84.64-2.76.12-.36.16-.72.2-1.08.04-.08.04-.2.04-.32 0-.2-.12-.32-.32-.32s-.4.04-.6.12L5.2 8.3c-.32.12-.52.28-.88.4.4-.36.88-.52 1.36-.76.32-.16.64-.24.92-.4l.28-.12c.04-.04.04-.08.04-.12h-.04c-.08 0-.16-.04-.24 0-.36.08-.68.24-1 .4C4 8.46 2.52 9.42 1.2 10.66l-.08.08c0 .04-.04.08-.04.12.04.08.08.04.16.04.04-.04.12-.08.2-.08-.12.12-.24.28-.32.44l-.24.24c-.16.12-.32.12-.48 0-.12-.12-.16-.28-.04-.44l.28-.48c.12-.08.24-.16.36-.28.68-.72 1.44-1.32 2.32-1.8l1.12-.76c.12-.08.24-.12.28-.24.64-.2 1.2-.48 1.8-.76l.2-.12c0-.16-.04-.24-.2-.2-.2.04-.44.12-.68.2-.52.2-1.04.48-1.56.8-.92.52-1.72 1.2-2.56 1.88-.36.28-.64.68-.96 1.04l-.12.24c-.04-.04-.12-.08-.2-.12.16-.52.6-.88 1-1.28.24-.24.56-.48.84-.72.04 0 .04-.04.08-.04l2-1.4 1.32-.76c.36-.2.72-.32 1.12-.32.32.04.56.12.8.36.84.84 1.16 1.88 1 3.04-.04.28-.12.52-.12.76.04.2.04.28-.08.44-.12.12-.12.32-.12.48-.04.32-.08.6-.2.92l-.2.84-1.04 4.24a2.33 2.33 0 0 0-.12.76c-.28.2-.32.56-.32.88-.2.12-.24.32-.32.56-.28.72-.44 1.48-.64 2.2 0 .08-.04.16 0 .2.08.32-.04.6-.12.88-.12.52-.28 1-.48 1.52-.08.16-.16.32-.36.4-.12.04-.16.2-.08.32.04.12.08.2.04.32-.2.52-.28 1.08-.6 1.56.04-.16.08-.32.08-.44 0-.04-.04-.08-.04-.08-.04 0-.08 0-.08.04-.16.24-.16.36-.16.76l.24-.32c0 .12-.04.28.16.32.08 0 .08.08.12.16v.08c.08.04.12 0 .16-.04l.12-.2c.24-.6.68-1.12 1.04-1.64a2.69 2.69 0 0 0 .28-.44c.24-.52.56-1 .96-1.4l.16-.24c.4-.64.88-1.2 1.32-1.84l1.8-2.48a5.58 5.58 0 0 1 .84-1.08c.24-.2.4-.44.56-.72.08-.16.2-.28.32-.44l.88-.96 1.52-1.96c.32-.4.68-.84 1.08-1.2.12-.08.24-.2.32-.36.28-.36.56-.72.92-1.04l1.4-1.44c.44-.48.88-.96 1.4-1.32.24-.2.44-.44.64-.68l.68-.72c.52-.52 1.16-.84 1.64-1.4a1.87 1.87 0 0 1 .4-.2l1-.48c.36-.16.68-.08.92.16.48.56.96 1.12 1.08 1.88.04.4.04.76-.04 1.12-.04.12-.08.24 0 .36.08.04.04.12-.04.2-.28.2-.32.48-.24.8.04.16 0 .32-.2.36-.16.04-.2.2-.28.36l-.56 1.56-.4 1c-.16.4-.36.8-.32 1.28 0 .12-.04.28-.16.4-.32.24-.48.6-.6.96-.2.4-.4.8-.32 1.24 0 .12-.08.28-.12.4-.08.24-.2.48-.32.76-.08.24-.2.48-.48.6-.28.16-.28.44-.32.68l.08-.08c.04 0 .04-.04.08-.04s.04.04.04.08c-.04.28-.36.36-.36.64a1.87 1.87 0 0 1-.12.68c-.16.36-.28.72-.48 1.04v-.28c0-.08.08-.16-.04-.24l-.32.72c.12-.04.24-.12.36-.2-.12.56-.4 1.08-.6 1.6-.08.2-.2.4-.2.68.2-.2.32-.4.56-.44.08-.04.16-.16.24-.24l.96-1.2c.12-.16.2-.32.32-.44.64-.56 1.08-1.24 1.64-1.88l1.52-1.68 1.24-1.24.8-.84 2.44-2.32c.48-.52 1-1.04 1.56-1.52l1.44-1.32 1.6-1.4c.16-.16.32-.32.52-.44.44-.32.88-.68 1.32-1.08.36-.28.76-.52 1.24-.72.4-.16.6-.08.84.32l.36.56c.24.28.32.56.36.92zm-17.96-.68c.2-.04.32-.16.48-.32.48-.48 1.04-.88 1.6-1.28.16-.08.24-.2.36-.28.28-.04.52-.12.76-.28.12-.08 0-.12-.12-.16.08-.04.12-.04.16-.08 0-.04.04-.08.04-.12s-.08-.08-.12-.04c-.36.04-.68.2-.96.44-.08.08-.04.16 0 .24-.48.32-.96.64-1.4 1.04-.28.28-.6.52-.8.84zm2.68-2.12l-.24.24h-.24c.12-.12.28-.2.48-.24zm-.04 1.44c.2-.16.44-.32.68-.48.04-.04.08-.08.04-.12-.04-.08-.08-.08-.16-.08-.12.08-.28.16-.44.24l-1.36 1c-.16.12-.28.28-.4.44-.12.12-.2.28-.2.44.2-.04.36-.2.52-.36l1.32-1.08zM6.52 6.74c-.12-.04-.08-.08 0-.12v.12zm30.6.76c.04 0 .08-.04.08-.12-.04-.04-.12-.04-.16-.04-.12.04-.28.08-.36.2-.08.04-.08.12 0 .16l-.36.36c-.16.04-.32.12-.48.2l-.48.36h-.04l-.08.08v-.08c-.12.04-.24.08-.12.2-.16.12-.28.24-.44.32l-.12.12c-.04.12-.16.16-.16.28.08.04.16 0 .2-.04l1.6-1.28.12-.16c.24-.08.48-.2.68-.36.04 0 .08-.04.12-.04-.04 0-.08-.04-.12-.04l.12-.12zm-32.4-.12h.04c0 .04-.04.08-.04.12v-.12zm15.6.88a.48.48 0 0 0 .2-.2.48.48 0 0 0-.2.2c-.24.08-.4.24-.6.4l-2.8 2.92c-.16.16-.28.36-.36.56l.76-.72.96-1.08 1.6-1.56c.16-.16.32-.32.44-.52zM4.28 8.7h.04-.04zm0 0a.89.89 0 0 1-.52.32c.16-.16.28-.24.52-.32zm32.32.32c.08 0 .12-.04.12-.08s0-.08-.04-.08c-.04-.04-.08 0-.12.08l.04.08zm-32.84.04c-.04 0-.04 0-.08.04l.08-.08v.04zm-.08.04c-.08.08-.16.12-.24.16.08-.08.16-.12.24-.16zm-.92.6c.08-.12.2-.16.32-.2a.87.87 0 0 1-.32.2zm0 0c-.12.16-.28.28-.44.32.12-.16.24-.24.44-.32zm32.8.28c.04-.04.2-.04.12-.12-.04-.04-.12.04-.16.08s-.04.04-.04.08c0 0 .04 0 .08-.04zm-.2.12l.04-.04c0-.04 0-.04-.04-.04v.08zm-2 .36c.2-.08.36-.2.48-.4-.2.08-.36.24-.48.4zm1.76-.12l.12-.08c-.04 0-.08.04-.12.04v.04zm-33.6.36h.04l-.12.12c.04-.04.04-.08.08-.12zm31.04.44c.16-.04.24-.12.32-.2-.12 0-.2.08-.32.2zm-8.04.48c0-.04.04-.04.04 0v.04l-.04-.04zm-6.28.4c.08-.08.24-.2.32-.4-.24.12-.28.24-.32.4zm13 .32c.36-.12.6-.36.8-.64-.36.12-.56.4-.8.64zm2.16-.44c0-.04.04-.08.04-.08h-.08c-.04.04-.04.08 0 .08h.04zm-19.28 3a4.75 4.75 0 0 0 1.24-1.44c.36-.28.72-.6.92-1-.36.24-.72.56-.92 1-.52.4-.96.84-1.24 1.44zm3.32-2.12c.12-.04.2-.12.28-.24l-.04-.04h-.04c-.12.08-.16.16-.2.28zm12.92.52l.24-.28c-.24.04-.4.2-.56.36-.44.44-.84.88-1.36 1.2a1.74 1.74 0 0 0-.24.28l-.8.84c-.12.16-.28.32-.36.52-.68.44-1.24.96-1.68 1.64.64-.48 1.16-1.08 1.68-1.64l.24-.2 2.84-2.72zm1.68-.04v-.04.04zm-16.24 1.4c.48-.36.84-.84 1.16-1.36a3.07 3.07 0 0 0-.72.72 2.29 2.29 0 0 1-.44.44c-.16-.08-.2 0-.24.12l.24-.12v.2zm15.32-.64l.12-.12c-.04.04-.08.08-.08.12h-.04zm-.08.12v-.04c.04 0 .08-.04.12-.08l-.12.12zm0 0l-.12.08c.04-.04.08-.08.12-.08zm-.44.44l.08-.12c0 .04-.04.08-.08.12zm-17 .92c.12-.08.24-.2.28-.36-.12.08-.2.2-.28.36zm22.6-.28h.04l-.12.24c.04-.08.08-.16.08-.24zm-23.16 1c.2-.2.4-.32.48-.6-.24.16-.4.36-.48.6-.16.12-.28.24-.36.44-.2.12-.32.32-.44.56.2-.16.4-.32.44-.56.16-.12.28-.24.36-.44zm-5.64-.44v-.12c0-.04.04-.04.04-.04v.08c-.04 0-.04.04-.04.08zm7.08.76h-.04c.04-.04.08-.08.12-.08-.04 0-.04.04-.08.08zm-7.4.44l-.12.36c.04-.12.08-.24.08-.36h.04zm5.76 1.32c.2-.12.32-.32.4-.52-.2.12-.32.28-.4.52zm-1.36-.08c.08-.08.16-.16.16-.28-.08.08-.12.16-.16.28a.62.62 0 0 0-.32.44c.12-.12.28-.28.32-.44zm23.4-.12c-.04.08-.08.2-.2.12.08-.04.16-.08.2-.12zm-8.04.12l-.12.12v-.04c.04 0 .08-.04.12-.08zm-2.56 1.08c.36-.28.68-.52.84-.96-.28.24-.64.56-.84.96-.32.24-.6.52-.76.88.32-.24.6-.48.76-.88zm-4.2-.72v.04l.04-.04h-.04zm-9.72 1.08c.2-.12.28-.28.36-.44.16-.12.28-.28.32-.44-.2.08-.28.24-.32.44-.16.08-.28.24-.36.44-.6.52-1 1.2-1.4 1.88v.04c.52-.52.92-1.12 1.32-1.72.04-.08.08-.16.08-.2zm9.08.36l-.68 1.52c-.04.16-.08.32-.08.48.08-.08.16-.16.24-.32.12-.32.28-.68.44-1a12.97 12.97 0 0 1 .44-1.12c0-.04 0-.12-.08-.12 0 0-.04 0-.08.04-.08.16-.16.36-.2.52zm6.16-.48c0 .04-.04.08-.08.12l.08-.12zm-.08.12l-.12.08c.04-.04.08-.08.12-.08zm-.36.32c-.04.08-.04.16-.08.2 0-.08.04-.12.08-.2zm-1.8.48c.04-.04.04-.12.04-.16l-.68.56c-.24.16-.4.32-.52.56v.12c-.12.2-.24.44-.32.64.56-.48 1-1.12 1.48-1.72zm8.96.24c0-.12 0-.2.04-.28l-.16.24c-.04.04-.04.12-.04.2 0 .04.12-.04.16-.16zm-21.48.24c.16-.12.24-.24.32-.4a.55.55 0 0 0-.32.4zm13 .36l.12-.12h-.12v.12c-.08.04-.16.12-.24.16-.04.04-.04.08-.04.12h.12c.08-.08.12-.16.16-.28zm8.08.12v-.04c-.04 0-.04 0-.04.04h.04zm-23.32.64a.62.62 0 0 0 .24-.32.62.62 0 0 0-.24.32zm1.16.36c.24-.16.4-.4.52-.68-.4.36-.68.76-.52.68zm8.68.2c-.12.16-.2.32-.2.52.12-.16.16-.32.2-.52.12-.16.2-.32.2-.52-.12.16-.2.32-.2.52zm-9.96-.44c-.08.08-.16.16-.2.32a.87.87 0 0 0 .2-.32zm14.56.16c.08-.08 0-.16-.08-.16l-.12.32c.08-.04.16-.08.2-.16zm-1.72.52c.16-.12.24-.28.32-.44-.16.12-.28.24-.32.44-.32.24-.56.48-.68.88.32-.24.52-.52.68-.88zm-13.04-.32a.55.55 0 0 0-.32.4c.12-.08.24-.24.32-.4zm-.88 1.2c.28-.2.44-.4.56-.76-.28.16-.44.44-.56.76-.08.04-.16.08-.24.08h.04c-.04.08-.04.16-.04.24-.24.16-.36.4-.44.68a1.22 1.22 0 0 0-.32.32l-.92 1.32a1.48 1.48 0 0 0-.2.44.87.87 0 0 0-.2.32c.12-.08.2-.2.2-.32l.36-.36.92-1.4c.08-.08.12-.2.16-.32.2-.2.4-.4.44-.68a.62.62 0 0 0 .24-.32zm10.4.52c.12-.16.2-.32.2-.52.12-.16.2-.32.2-.52-.12.16-.2.32-.2.52-.16.16-.2.32-.2.52zM4.68 23.7s-.04 0-.04.04-.04.08-.04.12v.04c.04.04.08.04.08 0l.04-.16s0-.04-.04-.04zm3.8.52c.12-.12.12-.2.08-.2-.08.04-.12.08-.16.16v.12c-.4.4-.4.4-.48.72a1.44 1.44 0 0 0 .48-.72c0-.04.04-.04.08-.08zm11.52.4a.87.87 0 0 0 .2-.32c-.12.08-.16.2-.2.32-.4.32-.64.76-.96 1.12-.04.12-.12.2-.12.36.04 0 .08 0 .12-.04.32-.48.72-.92.96-1.44zm-3.56 3.16l1.2-2.96c.08-.16.12-.32.12-.48-.2.24-.32.52-.44.8l-.88 2.04v-.04c-.12.2-.32.32-.32.56h.12l-.12.24-.12.64c.2-.24.32-.52.44-.8zm13.8-2.4c.12-.16.24-.32.24-.6-.16.2-.2.4-.24.6 0 .04-.04.08-.08.12v.12c.04-.04.04-.08.08-.08v-.16zm-9.48-.12a.87.87 0 0 0 .2-.32.63.63 0 0 0-.2.32zm-17.68-.28c-.04.04-.08.08-.08.16v.08l.08-.08c0-.04.08-.12 0-.16zm17.44.64c.12-.08.2-.16.24-.32-.12.08-.24.16-.32.28 0 0 0 .04.04.04 0 0 .04.04.04 0zm-17.56-.24a2.11 2.11 0 0 0-.32.88c.16-.28.28-.56.32-.88zm1.12 0c-.04 0-.04.04-.04.04 0 .04 0 .04.04.08l.04-.04c.04-.08 0-.08-.04-.08zm27.52.12h-.04l.04-.04v.04zm-24.12.16s.04-.04 0-.04c0-.04-.04-.04-.04 0-.04.04-.04.04-.04.08.04 0 .04-.04.08-.04zm-.72 1.12c.12-.16.24-.32.24-.52 0 0 0-.04-.04-.08 0 0-.08-.04-.08 0-.08.04-.12.08-.16.12-.28.32-.48.68-.64 1.04-.08.16-.2.32-.32.44-.12.16-.24.36-.36.56L2.88 32.1l-.6.92c-.04.08-.08.16-.08.24 0 .04 0 .04.04.08h.08c.12-.12.24-.24.32-.36l1.92-3 1.08-1.6 1.12-1.6zm24.52-.52v-.04c.04 0 .04-.04.08-.04 0 0-.04.04-.04.08s-.04.04-.04 0zm-1.8 1.12c.08-.2.2-.32.24-.64-.2.24-.2.44-.24.64-.04.04-.08.08-.08.12v.08l.04-.04c.04-.08.04-.12.04-.16zm-9.96-.44l.12-.12c-.04.04-.12.04-.16.04l-.04.04c0 .04.04.08.08.04zm-.4.56c.08.04.12-.08.12-.12s0-.08-.04-.12h-.12v.12c-.04.04-.04.12.04.12zM2 28.1a1.06 1.06 0 0 0 .24-.68c-.2.28-.24.48-.24.68zm1.96.4c-.24.12-.28.36-.4.6 0 .12.04.2.08.28v-.04c.12-.12.24-.24.36-.4.28-.48.68-.92.84-1.44l-.76.88-.12.12zm14.6 0a2.55 2.55 0 0 0 .32-.56.64.64 0 0 0-.32.56.85.85 0 0 0-.48.44c0 .04 0 .08.04.08 0 .04.08.04.08 0 .2-.12.28-.32.36-.52zm-15.2 1.28s-.04 0-.04.04c.04 0 .04 0 .08-.04v-.08c.12-.12.16-.16.24-.32-.08.08-.16.2-.24.32 0 0-.04.04-.04.08zm13.96.6c.24-.28.44-.76.32-.68-.24.12-.32.36-.44.6 0 0 .04.04.04.08h.08zM1.44 29.9c0-.04.08-.12-.04-.16 0 0-.04.08-.04.12-.04.12-.04.2-.04.28l.12-.24zm27.6 1.84c.08-.04.2-.08.08-.24-.08.08-.04.16-.08.24zm22.573-8.6c.52.04.56.12.48.6 0 .08-.04.16 0 .24 0 .12-.08.24-.16.32-.16.08-.28.16-.4.28-.24.16-.52.28-.68.52a1.42 1.42 0 0 0-.36.16l-4.4 2.52c-.92.52-1.84.96-2.88 1.28a3.41 3.41 0 0 1-.92.12c-.28-.04-.48-.12-.68-.32-.48-.36-.76-.84-.8-1.44 0-.24 0-.48-.12-.72-.08-.12-.16-.16-.28-.12-.16.08-.28.12-.4.2l-1.96 1.04c-1.12.6-2.24 1.2-3.48 1.52-.24.08-.48.12-.76.16-.32.04-.64-.08-.88-.36-.08-.12-.2-.2-.28-.32-.28-.28-.4-.6-.44-1-.04-.2-.04-.4-.08-.6-.08-.76.16-1.44.68-2.04.12-.16.28-.32.44-.48.64-.76 1.4-1.44 2.28-1.96.28-.2.56-.36.8-.6.2-.2.48-.36.72-.48.6-.36 1.24-.72 1.96-.92 0 0 .04 0 .08-.04.2-.04 1.6-.16 1.8-.12.56.08.92.44 1.2.92.08.16.16.4.24.6.08.12.12.28.2.4.04.08.12.12.24.08.04 0 .08-.04.16-.08.32-.08.6.04.64.36s.08.56.32.76c.04.04.08.12.08.2.08.16-.08.28-.08.44-.04.16.16.28.16.48-.04.08-.08.16-.16.2-.52.36-.68.96-.96 1.48-.04.04-.04.12 0 .2.08.04.12.04.2.04.52-.16 1.04-.32 1.48-.6l2.2-1.24.28-.12c.64-.44 1.36-.72 2-1.12.16-.08.28-.16.44-.2.44-.08.8-.28 1.2-.48.2-.12.44-.24.68-.32.12-.04.24.08.24.16a.99.99 0 0 1-.16.36c.04 0 .08 0 .12.04zm-13.68-1.12c-.32.08-.6.2-.8.44.32-.08.6-.2.8-.44.12-.04.24-.04.36-.08l2.2-.52c.12 0 .24-.04.4-.08.04-.04.04-.08.04-.12 0-.08 0-.16-.08-.2-.08 0-.16-.04-.24-.04-.44 0-.88.12-1.36.24s-.96.28-1.32.68v.12zm3.08.12c-.04-.04-.08-.08-.16-.08h-.12c-.6 0-1.64.28-2.12.56l-.12.12v.04c0 .04 0 .04.04.04.16.04.28 0 .4-.08.56-.2 1.12-.36 1.72-.44.08 0 .16-.04.24-.04s.12-.04.12-.12zm.32.84c.12-.2.04-.36-.2-.44-.16-.04-.32-.08-.48-.04-.96.12-1.88.44-2.64 1.08-.04.04-.08.04-.08.08-.2.04-.36.16-.52.28l-1.52 1.2-1.4 1.4c-.08.08-.12.16-.12.24-.04.04 0 .12.04.16 0 .04.08.04.12.04.08 0 .16-.04.2-.08.28-.16.56-.24.88-.32.36-.12.68-.28 1-.48a.87.87 0 0 1 .32-.2l2.44-1.28 1.2-.76c.32-.24.56-.56.76-.88zm9.76.44l.08-.08c-.04 0-.04 0-.08.04-.04 0-.04.04-.04.04h.04zm-4.68 2.56c-.12.08-.24.12-.32.24a.62.62 0 0 0 .32-.24zm-6.44.56c.04-.04.04-.08.04-.08 0-.08-.08-.08-.12-.08s-.12 0-.16.04l-1.28.64c-.68.44-1.44.76-2.16 1.12-.72.32-1.44.64-2.24.76l-.24.12c-.04 0-.04.04-.04.08s.04.04.04.08h.2c.36 0 .64-.08.96-.2a11.06 11.06 0 0 0 1.88-.8l1.72-.84c.44-.24.84-.56 1.32-.76.04-.04.08-.04.08-.08zm-6.08.28v.04c.04 0 .08-.04.08-.04s0-.04.04-.04c-.04 0-.08 0-.12.04zm13.08.24c.04 0 .16-.04.12-.12 0-.12-.12-.08-.16-.08a1.24 1.24 0 0 0-.52.24c-.2.12-.36.28-.6.36-.48.12-.92.36-1.36.6-.56.28-1.12.48-1.72.56-.12 0-.2.04-.32.08-.04 0-.04.04-.04.08s0 .08.04.08l.16.04c.36.04.68-.04.96-.16l2.28-1 .48-.32c.12-.08.12-.2.12-.32.2.04.36.08.56-.04zm-10.72.16c.08-.04.12-.04.16-.04s.04-.04.08-.08h-.08c-.08.04-.12.08-.16.12zm-2.64.84c0 .16.08.28.24.24.32 0 .64-.12.96-.24.24-.08.36-.28.36-.52a.56.56 0 0 0 .76-.08l.2-.12c-.36-.08-.68-.04-.96.2-.48.04-.92.2-1.4.32-.12 0-.2.08-.16.2zm8.96-.52c-.04 0-.04.04-.04.08l.08.04c.2 0 .4-.08.56-.16.04 0 .04-.04.04-.04l-.08-.08c-.2.04-.4.04-.56.16zm.28.24c-.08-.04-.24-.04-.28.04 0 .04 0 .08.04.08.08.04.16 0 .24-.04v-.04-.04zm28.884-3.76c.16.2.04.52-.2.64-.08.08-.2.12-.28.16-.16.04-.32.08-.48.16-.16.04-.32 0-.4.2.16.08.28-.04.44-.08.08 0 .2 0 .32-.04-.52.32-1.08.52-1.64.68l-1.52.44c-1.76.44-3.48 1-5.16 1.6-.68.2-1.32.52-1.96.72-.64.24-1.08.64-1.36 1.24-.32.68-.72 1.32-1.08 1.96l-1 1.6c-.2.4-.56.72-.84 1.08-.24.24-.48.44-.6.8-.04.12-.16.24-.28.32-.2.12-.36.32-.48.52.04.04.08.08.04.12h-.16c-.16.12-.32.24-.48.4l-1.2 1.36c-.16.16-.24.32-.28.52-.08.28-.28.44-.52.52-.16.08-.32.08-.44.2-.08.08-.12.2-.04.28-.56.76-1.24 1.36-2 1.88v-.2a.87.87 0 0 0-.32.2h.32l-.6.56c-1.72 1.4-3.6 2.64-5.68 3.44a7.78 7.78 0 0 1-.88.32c-.36.12-.68.08-.96-.12l-.36-.24c-.2-.16-.4-.32-.48-.56-.16-.48-.32-.96-.36-1.48-.04-.24 0-.48.04-.72.28-.8.56-1.6 1.12-2.28.16-.16.24-.4.4-.56l1.88-2.2c.12-.16.28-.32.44-.48a5.45 5.45 0 0 0 .96-.96 1.25 1.25 0 0 1 .44-.36 3.64 3.64 0 0 0 .84-.72 14.49 14.49 0 0 1 1.68-1.44l1.28-1c1.24-.96 2.56-1.8 3.88-2.64.8-.52 1.56-1.04 2.44-1.44.04 0 .08-.04.12-.08.76-.48 1.56-.84 2.36-1.24.08-.04.2-.08.28-.16.2-.12.28-.28.32-.48.04-.24-.2-.48-.44-.44-.16 0-.36.08-.52.12-1.04.44-2.12.72-3.2 1.04-1.12.36-2.28.68-3.48.88-.56.12-1.08.08-1.64.08-.44 0-.72-.24-.92-.6-.16-.32-.2-.68-.16-1.04.12-.88 1.92-3.4 2.6-4l.08-.08c.2-.16.4-.12.48.12s.12.52.04.76c-.08.2.4.28-1.08 2.2.28.08.04.36.2.4.24.08.44.04.68 0 .56-.12.56-.08 1.08-.28a5.33 5.33 0 0 1 .76-.2c.48-.08.96-.24 1.44-.4l2.24-.76 1.4-.48c.2-.04.4-.12.6-.12.28 0 .44.12.56.36s.2.52.24.8l.12 1.04c.04.32.16.4.52.32l.72-.28a14.13 14.13 0 0 1 1.84-.6l1.56-.48 1.92-.56c.08 0 .16 0 .24-.08.52-.24 1.08-.36 1.64-.44.4-.04.8-.12 1.16-.24.4-.16.88-.2 1.28-.4.2-.08.36.04.36.24 0 .24 0 .44.12.68zm-.96.04s0-.04.04-.04l-.08-.08-.84.08c-.08 0-.16.04-.24.08-.08 0-.12.08-.08.12 0 .04.04.08.08.12h.08c.36-.04.72-.12 1.04-.28zm-11.8.44c.04 0 .04 0 .08-.04-.04 0-.08 0-.08.04-.04 0-.08 0-.08.04.04 0 .04 0 .08-.04zm7.72.56c.56-.04.56-.04.88-.24-.32.04-.6.08-.88.24zm-11.32.6c.04 0 .04-.04.08-.04h-.08c-.12.04-.28 0-.32.16.12 0 .24-.08.32-.12zm8.96.16c.04 0 .16.04.12-.08-.04 0-.08 0-.16.04-.04 0-.08.04-.12.08.04 0 .12 0 .16-.04zm-12.36.88c.28-.04.52-.08.76-.16.52-.2 1.12-.28 1.64-.56a1.81 1.81 0 0 0-.64.12c-.6.12-1.2.32-1.8.48-.12.04-.24 0-.32.12.12.16.24.04.36 0zm-1.76-.08c-.12 0-.16.04-.16.16s0 .24.16.24c.08.04.2-.12.2-.24s-.12-.16-.2-.16zm.56 1.28c.04 0 .12-.04.08-.08 0-.04-.08-.08-.12-.08-.12-.04-.24-.04-.4-.04h-.2c-.08 0-.12 0-.2.08-.04.04.08.12.2.16.2.04.44.04.64-.04zm6.32 2.84c.04-.08.08-.16.04-.24-.08-.04-.16 0-.2.04l-.84.52-1.28.76-1.44 1c-.04.04-.08.04-.08.08-.6.24-1.12.64-1.56 1.08-.08.08-.2.16-.28.2-.64.44-1.28.8-1.84 1.32-.24.2-.48.36-.8.28-.08.08-.2.12-.28.2-.28.2-.6.36-.8.64-.2.32-.48.56-.8.76-.2.12-.36.28-.44.52-.44.28-.76.68-1.12 1.08-.12.12-.2.28-.24.44-.08.44-.44.68-.72 1-.08.08-.16.08-.24 0-.28.36-.6.68-.8 1.08-.04.12-.12.24-.08.36l-.4.36c-.12.12-.24.24-.16.4.08.24-.12.28-.2.4.04.08.12.08.2.12.16.16.32.16.56.04l.72-.32c.48-.16.88-.4 1.28-.68.28-.2.52-.4.84-.48.16-.04.32-.16.44-.24l1.84-1.44c.72-.64 1.48-1.2 2.12-1.92.12-.08.24-.16.36-.28.32-.24.64-.52.92-.84.24-.32.52-.6.8-.88l2.04-2.12c.84-.88 1.56-1.88 2.24-2.88.08-.12.16-.24.2-.36zm-2.2 5.92c.08-.08.16-.12.2-.2h.04c-.08.08-.16.16-.24.2zm-8.16 1.24c-.08.04-.16.08-.24 0h.24zm-.56.56v-.04c.04 0 .08-.04.12-.08l-.12.12zm-.16.16c0-.04 0-.08.04-.08.04-.04.08-.08.12-.08l-.08.12s-.04.04-.08.04zm2.92 1.92c.16-.08.28-.12.4-.36a1.2 1.2 0 0 0-.4.36c-.08.04-.12.08-.2.16.08-.04.12-.08.2-.16zm-.72.64c.2-.04.36-.2.44-.4-.2.04-.36.2-.44.4zm-5.68 3c.12.24.2.28.44.24l.44-.2 1.8-.84c.4-.24.8-.48 1.04-.84.6-.2 1.04-.56 1.48-1 .16-.04.28-.16.4-.32-.16.04-.32.16-.44.32-.16.08-.32.12-.48.24-.28.24-.6.36-.92.52l-.56.24c-.92.52-1.88 1-2.88 1.36l-.24.12c-.08.04-.12.08-.08.16zm6.36-2.08c.04 0 .12-.04.04-.12l-.08.04c-.08.12-.16.2-.2.24.08-.04.16-.08.24-.16zm-1.28 1c.36-.2.72-.44.96-.8-.24-.04-.44 0-.64.2-.12.12-.28.24-.44.32-1.32.92-2.76 1.64-4.32 2.2-.12.04-.24.12-.4.2 0 0-.04.04-.04.08 0 0 .04.04.08.04.04.04.12.04.16 0a2.91 2.91 0 0 0 .84-.24c1.04-.36 2-.96 2.96-1.48l.2-.12c.16-.2.4-.32.64-.4zm39.426-19.96c.52.04.56.12.48.6 0 .08-.04.16 0 .24 0 .12-.08.24-.16.32-.16.08-.28.16-.4.28-.24.16-.52.28-.68.52-.12.04-.24.08-.36.16l-4.4 2.52c-.92.52-1.84.96-2.88 1.28a3.41 3.41 0 0 1-.92.12c-.28-.04-.48-.12-.68-.32-.48-.36-.76-.84-.8-1.44 0-.24 0-.48-.12-.72-.08-.12-.16-.16-.28-.12-.16.08-.28.12-.4.2l-1.96 1.04c-1.12.6-2.24 1.2-3.48 1.52-.24.08-.48.12-.76.16-.32.04-.64-.08-.88-.36-.08-.12-.2-.2-.28-.32-.28-.28-.4-.6-.44-1-.04-.2-.04-.4-.08-.6-.08-.76.16-1.44.68-2.04.12-.16.28-.32.44-.48.64-.76 1.4-1.44 2.28-1.96.28-.2.56-.36.8-.6.2-.2.48-.36.72-.48.6-.36 1.24-.72 1.96-.92 0 0 .04 0 .08-.04.2-.04 1.6-.16 1.8-.12.56.08.92.44 1.2.92.08.16.16.4.24.6.08.12.12.28.2.4.04.08.12.12.24.08.04 0 .08-.04.16-.08.32-.08.6.04.64.36s.08.56.32.76c.04.04.08.12.08.2.08.16-.08.28-.08.44-.04.16.16.28.16.48-.04.08-.08.16-.16.2-.52.36-.68.96-.96 1.48-.04.04-.04.12 0 .2.08.04.12.04.2.04.52-.16 1.04-.32 1.48-.6l2.2-1.24.28-.12c.64-.44 1.36-.72 2-1.12.16-.08.28-.16.44-.2.44-.08.8-.28 1.2-.48.2-.12.44-.24.68-.32.12-.04.24.08.24.16a.99.99 0 0 1-.16.36c.04 0 .08 0 .12.04zm-13.68-1.12c-.32.08-.6.2-.8.44.32-.08.6-.2.8-.44.12-.04.24-.04.36-.08l2.2-.52c.12 0 .24-.04.4-.08.04-.04.04-.08.04-.12 0-.08 0-.16-.08-.2-.08 0-.16-.04-.24-.04-.44 0-.88.12-1.36.24s-.96.28-1.32.68v.12zm3.08.12c-.04-.04-.08-.08-.16-.08h-.12c-.6 0-1.64.28-2.12.56l-.12.12v.04c0 .04 0 .04.04.04.16.04.28 0 .4-.08.56-.2 1.12-.36 1.72-.44.08 0 .16-.04.24-.04s.12-.04.12-.12zm.32.84c.12-.2.04-.36-.2-.44-.16-.04-.32-.08-.48-.04-.96.12-1.88.44-2.64 1.08-.04.04-.08.04-.08.08-.2.04-.36.16-.52.28l-1.52 1.2-1.4 1.4c-.08.08-.12.16-.12.24-.04.04 0 .12.04.16 0 .04.08.04.12.04.08 0 .16-.04.2-.08.28-.16.56-.24.88-.32.36-.12.68-.28 1-.48a.87.87 0 0 1 .32-.2l2.44-1.28 1.2-.76c.32-.24.56-.56.76-.88zm9.76.44l.08-.08c-.04 0-.04 0-.08.04-.04 0-.04.04-.04.04h.04zm-4.68 2.56c-.12.08-.24.12-.32.24a.62.62 0 0 0 .32-.24zm-6.44.56c.04-.04.04-.08.04-.08 0-.08-.08-.08-.12-.08s-.12 0-.16.04l-1.28.64c-.68.44-1.44.76-2.16 1.12-.72.32-1.44.64-2.24.76l-.24.12c-.04 0-.04.04-.04.08s.04.04.04.08h.2c.36 0 .64-.08.96-.2a11.06 11.06 0 0 0 1.88-.8l1.72-.84c.44-.24.84-.56 1.32-.76.04-.04.08-.04.08-.08zm-6.08.28v.04c.04 0 .08-.04.08-.04s0-.04.04-.04c-.04 0-.08 0-.12.04zm13.08.24c.04 0 .16-.04.12-.12 0-.12-.12-.08-.16-.08a1.24 1.24 0 0 0-.52.24c-.2.12-.36.28-.6.36-.48.12-.92.36-1.36.6-.56.28-1.12.48-1.72.56-.12 0-.2.04-.32.08-.04 0-.04.04-.04.08s0 .08.04.08l.16.04c.36.04.68-.04.96-.16l2.28-1 .48-.32c.12-.08.12-.2.12-.32.2.04.36.08.56-.04zm-10.72.16c.08-.04.12-.04.16-.04s.04-.04.08-.08h-.08a.55.55 0 0 0-.16.12zm-2.64.84c0 .16.08.28.24.24.32 0 .64-.12.96-.24.24-.08.36-.28.36-.52a.56.56 0 0 0 .76-.08l.2-.12c-.36-.08-.68-.04-.96.2-.48.04-.92.2-1.4.32-.12 0-.2.08-.16.2zm8.96-.52c-.04 0-.04.04-.04.08l.08.04c.2 0 .4-.08.56-.16.04 0 .04-.04.04-.04l-.08-.08c-.2.04-.4.04-.56.16zm.28.24c-.08-.04-.24-.04-.28.04 0 .04 0 .08.04.08.08.04.16 0 .24-.04v-.04-.04zm46.444-22.96c.04.56-.08 1.08-.48 1.48-.4.48-.72 1-1.16 1.4-.12.08-.16.2-.24.32-.28.12-.52.32-.76.56v-.04l-.12.12c-.04.04-.12.08-.2.12h.2c-.24.24-.56.4-.88.56.04-.08.08-.16.12-.2l-.12-.12h.12v-.04-.08l-.12.12c-.2.12-.44.24-.68.36a3.45 3.45 0 0 1-1.12.44c-.28.08-.36-.04-.44-.32 0-.24.04-.4.24-.56l.88-.6c.24-.12.44-.28.68-.44 1-.68 1.76-1.56 2.52-2.48.2-.2.32-.44.44-.68.04-.16.04-.28-.12-.4-.2-.16-.48-.28-.72-.36-.64-.16-1.24-.28-1.88-.28-1.52-.08-3 .16-4.48.48l-4.36 1.28-2.28.92c-1 .44-2 .96-2.96 1.52-.52.32-1 .64-1.44 1a4.62 4.62 0 0 1-1.32.84c-.44.24-.72.6-.96 1.04h.12c-.04.08-.12.12-.24.12-.6.44-.96 1.04-1.24 1.72-.04.16-.12.32.04.48-.24.4-.32.84-.28 1.32 0 .2.08.4.24.6a8 8 0 0 0 .88.76c.64.52 1.36.96 2.12 1.4l2.76 1.6c1.44.84 2.84 1.68 4.16 2.72 1.12.88 2.16 1.88 3 3.12.72 1.16 1.28 2.4 1.64 3.72.16.72.16.72.8.96a17.77 17.77 0 0 1 1.96.96c.6.36 1.2.76 1.72 1.28.48.48.84 1.08 1.04 1.76.12.44.24.88.28 1.36 0 .24 0 .52-.12.76-.2.4-.64.64-1.08.52-.12 0-.16-.08-.16-.16.04-.4 0-.8.12-1.16l.12-.28c.08-.2 0-.36-.12-.56a3.53 3.53 0 0 0-.88-.84c-.92-.64-1.96-1.16-3.08-1.56-.28-.08-.44-.04-.6.24-.08.2-.16.36-.16.56-.04.24-.12.44-.28.6-.16.2-.28.44-.44.64-.2.32-.36.68-.68.96-.04.04-.08.12 0 .16.04.08.12 0 .16 0-.24.44-.56.72-.96.96-.16.36-.44.6-.72.84-1.6 1.32-3.28 2.48-5.16 3.36l-1.44.72a29.24 29.24 0 0 1-3.12 1.16c-.28.08-.56.24-.84.36l-1.2.16c-1.28.32-2.6.36-3.92.2-1.4-.16-2.6-.68-3.64-1.64-.52-.48-.88-1.12-1.12-1.8-.16-.48-.28-1-.32-1.52-.12-1.08.16-2.08.72-3.04.64-1.08 1.48-2 2.52-2.68l1.68-1.16c.64-.4 1.32-.72 1.96-1.08l.32-.12c.6-.12 1.12-.36 1.64-.64.24-.12.44-.2.68-.2.16-.04.32-.08.48-.16.8-.32 1.68-.48 2.52-.56l1.72-.16c1.36-.16 2.76-.08 4.12.08l1.56.32c.72.08 1.36.28 2.04.48.2.04.36.12.56.08.08 0 .2-.12.16-.24 0-.12-.04-.24-.08-.36a4.56 4.56 0 0 0-.6-1.36c-.68-1.12-1.6-2.08-2.6-2.88s-2.08-1.48-3.16-2.12l-3.68-2.16c-1.16-.64-2.24-1.4-3.2-2.32-.92-.88-1.4-1.96-1.56-3.2-.16-1.76.48-3.2 1.52-4.48.56-.64 1.12-1.24 1.8-1.72.16-.08.28-.24.4-.36.28-.24.6-.44.92-.6.44-.24.84-.48 1.24-.76.84-.56 1.76-1 2.68-1.4.76-.4 1.6-.68 2.4-1 .16-.04.32-.12.48-.12.44-.12.84-.24 1.24-.44a1.42 1.42 0 0 1 .36-.16l2.2-.56 1-.2c.2 0 .36-.04.56-.08.2-.08.4-.12.6-.08.16 0 .32-.04.48-.08.12 0 .24-.08.4-.08l3.24-.08c.28.04.52.12.8.2.16.08.32.16.52.2.52.16.88.52 1.12.96.32.56.48 1.16.52 1.8zm-2.64-2.44h.32c-.28-.16-.6-.2-.96-.24-.8-.04-1.64-.08-2.48 0-1.12.12-2.24.36-3.36.6l-2.6.72c-.32.12-.6.24-.84.48-.04.04-.04.16.04.12.48-.12.92-.2 1.32-.52.24-.16.52-.24.84-.2.36.04.72-.04 1.08-.2.6 0 1.12-.12 1.68-.24.64-.12 1.28-.2 1.92-.24.8-.08 1.56-.16 2.36-.08h.24c.08-.28.28-.16.44-.2zm-3.76.12c.2-.08.44-.08.64-.04-.2 0-.44 0-.64.04zm0 0c-.32.08-.64.12-1 .16.32-.16.68-.12 1-.16zm-1.64.28h-.04l.04-.04v.04zm-.68.12c0-.04.04-.04.04-.04.04.04 0 .04-.04.04zm0 0c-.04 0-.08.04-.12.04.04-.04.08-.04.12-.04zm-.12.04c-.12.04-.28.08-.44.08.16-.04.32-.04.44-.08zm5.84.56c.2 0 .4.08.6-.04-.16-.2-.4-.16-.6-.2s-.4-.04-.6-.04c-1.24-.04-2.48.04-3.72.28-2.16.44-4.24 1.04-6.32 1.8-.24.08-.44.2-.6.4.44 0 .84-.16 1.24-.28l1.84-.64 1-.32c1-.32 2.04-.52 3.08-.72.56-.12 1.16-.16 1.72-.2a15.5 15.5 0 0 1 2.36-.04zm-11.12 1.08c-.4.08-.8.16-1.12.44.4-.04.8-.16 1.12-.44.32 0 .6-.12.88-.32-.32.04-.64.12-.88.32zm-3.92 1.92c.08-.08.16-.16.28-.24.8-.32 1.6-.64 2.32-1.12-.84.16-1.56.56-2.24 1.04-.04 0-.04.04-.08.08-.68.2-1.24.6-1.8 1-.08.04-.16.08-.08.16.04 0 .08 0 .12-.04l1.48-.88zm3.48-.6c.08-.04.12-.12.08-.2-.04.04-.08.12-.08.2zm-1 .44c.28 0 .56-.08.76-.32.08-.04.12-.08.2-.08-.08-.04-.12-.04-.2-.04v.12c-.04-.04-.12-.08-.2-.12-.2.12-.32.32-.56.36v.08zm-1.04.6V6.9c0-.04 0-.04-.04 0l.04.04zm-2.36 1.36c.16 0 .32-.16.4-.28-.32.12-.56.32-.4.28zm14.76.28c.16-.04.28-.12.36-.24-.12.04-.24.12-.36.24a.87.87 0 0 0-.32.2l-.36.12s-.04.04-.04.08c.04 0 .08.04.12.04.12-.04.2-.16.28-.24a.87.87 0 0 0 .32-.2zm1.56.08l-.12.12v-.12h.12zm-1 .68c-.04.04-.12.08-.2.12.04-.04.12-.08.2-.12zm-.2.12c-.24.24-.56.36-.88.44a1.43 1.43 0 0 1 .88-.44zm-.88.44c-.12.04-.24.08-.36.08.12-.04.24-.04.36-.08zm-.48.16c-.04 0 0-.04.04-.04s.04 0 .08-.04l-.08.08h-.04zm-16.16.56v.04h-.04l.04-.04zm-.76 18.16c-.16.08-.32.12-.44.2.08.04.2 0 .24.08.16.16.32.12.52.04l.24-.12h-.08-.04c0-.04 0-.08.04-.08h.12v.08.04l1.08-.2c1.2-.2 2.44-.36 3.64-.36h1.6c.2 0 .4 0 .52-.12.8.04 1.64.12 2.4.28.12.04.28.08.4.08s.24.08.4-.04c-.12 0-.2-.04-.24-.08l-3.28-.52a17.42 17.42 0 0 0-4.56.12l-2.56.6zm3.48-.44c.4-.12.8-.08 1.16-.04l-1.16.04zm3-.04c.32-.04.64-.08.96.04-.32 0-.64-.04-.96-.04zm-4.32.24c.44-.16.88-.16 1.32-.2-.44.08-.88.2-1.32.2zm5.76-.04c-.04 0 0 0 0 .04l.04-.04c0-.04 0-.04-.04 0zm-5.76.04c-.04 0-.08.04-.12.04h-.12c.04 0 .08-.04.12-.04h.12zm-.68.12c.12-.08.28-.08.44-.08-.16.04-.28.08-.44.08zm-.88.24c.28-.2.56-.24.88-.24-.28.12-.56.24-.88.24zm-4.96 1.96c-.28.04-.56.16-.72.4.28-.08.48-.16.72-.4.16-.04.36-.12.56-.2l1.96-.88c.16-.04.32-.12.44-.24l.52-.12c.04 0 .08-.04.12-.08.04-.08-.04-.08-.08-.12v-.12l-.04.04c.04.04.04.04.04.08-.2.12-.36.24-.56.32h-.44c-.16.16-.32.08-.52.12-.16 0-.24.32-.48.32h-.08l-.24.12-.44.24v-.04c-.24.2-.6.28-.76.56zm16.32-.72l-3.4-.8c-1.96-.28-3.92-.32-5.92.04-1 .16-1.96.44-2.96.72-.6.16-1.16.36-1.72.68l-.68.28c-.4.12-.8.32-1.2.52a.4.4 0 0 0-.24.4c.4-.08.76-.28 1.12-.48.2-.12.4-.28.6-.36l2.16-.76c1.04-.36 2.12-.6 3.2-.76l2.92-.24 3 .24c1.04.16 2.08.36 3.08.64.04 0 .12 0 .12-.04.04-.04-.04-.08-.08-.08zm0 1.28c.32-.6.24-.76-.44-.96l-1.68-.36c-.44-.12-.88-.2-1.32-.24l-1.04-.12c-.92-.12-1.84-.2-2.8-.12l-1.08.12c-2.2.24-4.32.88-6.32 1.84-.92.44-1.76.92-2.6 1.48-.2.16-.44.32-.72.32-.24.04-.4.2-.52.36.12-.04.2-.12.36-.04-.2.28-.44.48-.72.6-.44.16-.72.48-.88.88.04.12.04.12-.12.12-.32.24-.48.6-.64 1-.04.12 0 .24.12.32h-.04c-.08.08-.16.2-.16.32 0 .28-.08.52-.16.76-.04.24-.04.48 0 .72.04.36.24.64.52.88a5.07 5.07 0 0 0 .92.48 8.52 8.52 0 0 0 2.44.48c1.24.04 2.44 0 3.64-.36.12 0 .2-.04.28-.04.48-.08.96-.16 1.36-.4.16-.08.32-.12.48-.16.36-.08.72-.2 1.04-.4.16-.08.32-.2.52-.16.44.04.8-.16 1.12-.36.36-.28.76-.48 1.12-.68l1.8-1c.96-.6 1.88-1.24 2.76-2l.64-.6c.92-.72 1.56-1.68 2.12-2.68zm-17.32 0a.62.62 0 0 0-.32.24c.12-.04.2-.12.32-.24zm-.96.56c-.04.04-.04.08-.04.08.04 0 .08.04.12.04.2-.12.4-.28.52-.44l-.28.12c-.12.08-.24.12-.32.2zm19.12 1.92c0-.08.04-.08.04-.04 0 0 0 .04-.04.04zm-.04.08c0-.04 0-.08.04-.08 0 .04-.04.04-.04.08zm-3.12 1.32c.44-.2.72-.48.88-.88-.32.28-.64.52-.88.88zm2.76-.88c0 .04-.04.08-.08.12h-.04c.04 0 .04-.04.04-.04l.08-.08zm-.84.68l.04-.04h-.08c-.04.04-.08.08-.08.12l.12-.08zm-2.56.76c.04-.04.04-.04.08-.04.04-.04.04-.04 0-.08l-.04.04s-.04.04-.04.08zm1.2.44c.2-.04.36-.16.44-.36-.2.08-.32.2-.44.36-.12.08-.28.12-.44.2l-.12.12v-.12c-.04.04-.08.08-.08.12-.32.12-.52.32-.76.48-.8.68-1.72 1.2-2.64 1.68-.84.48-1.68.88-2.52 1.24-1.96.88-3.96 1.52-6.08 1.8-.16 0-.28.04-.44.08-.12.04-.28-.04-.36.12 1 0 1.96-.08 2.92-.32 2.8-.68 5.36-1.88 7.8-3.36l1.24-.76c.56-.36 1.08-.76 1.48-1.28zm-2.36.2c-.2 0-.24.08-.16.32.16-.04.32-.16.44-.32.32-.08.56-.28.76-.56-.12.08-.28.12-.4.16-.24.04-.32.2-.36.4h-.28zm-9.76 4.28c.4-.04.8-.12 1.2-.2l-.44.24h-.12c-.04 0-.08.04-.04.04 0 .04.04 0 .04 0 .04 0 .08-.04.12-.04.44 0 .88-.12 1.28-.2 2.12-.6 4.12-1.52 6.04-2.6.48-.28.92-.6 1.28-.96-.16-.12-.32-.16-.52-.04l-.64.36c-1.48.88-2.96 1.6-4.56 2.16-1.36.56-2.8.96-4.28 1.16-.08 0-.2 0-.28.08.04.08.12.08.2.08.24 0 .48-.04.72-.08zm7.92-2.96c.08-.04.16-.08.24-.08-.08.04-.16.08-.24.08zm-.68.36l.24-.12c-.08.04-.12.08-.2.12h-.04zm.04 0c-.12.08-.16.12-.32.2.08-.08.16-.16.32-.2zm-.32.2h-.04.04zm-.68.36c-.08 0-.16.04-.2.08l-.24.12c.08-.04.16-.08.2-.12l.24-.12c.08-.04.16-.04.2-.08l.24-.12c-.08.04-.16.08-.2.12l-.24.12zm-.68.32l-.32.12c-.08 0-.12.04-.2.08.04-.04.12-.08.2-.12.12 0 .2-.04.32-.08zm-1.08.44l.32-.12-.32.12zm0 0l-.24.12c-.12 0-.2.04-.32.08l.32-.12c.08 0 .16-.04.24-.08zm-1.8.64c.12-.04.24-.08.36-.08-.12.04-.24.04-.36.08zm-.64.24l.32-.12c-.08.04-.2.08-.32.12zm0 0l-.44.12c-.16 0-.32.04-.44.08l.44-.12c.12 0 .28-.04.44-.08zM135.92 24.7c.2-.12.44-.28.76-.32-.08.12-.12.16-.16.2l-.88.56-3.56 2-3.12 1.76c-.56.32-1.16.48-1.8.56-.76.12-1.44-.12-1.96-.76-.4-.48-.68-1.72-.56-2.36.04-.12.08-.24.08-.36.04-.08.04-.2.04-.28 0-.16-.16-.24-.28-.2-.08.04-.12.08-.2.08l-2.52 1.12-.72.32c-.44.2-.96.28-1.44.36-.72.12-1.2-.2-1.56-.76-.24-.36-.36-.72-.48-1.12-.04-.28-.04-.56 0-.84.2-.68.48-1.32.92-1.88.16-.2.32-.36.56-.48.2-.08.36-.08.52.08l.12.12c.4.24.4.6.2.96-.24.4-.24.84-.32 1.28 0 .16.08.28.28.32.24 0 .48 0 .68-.12.2-.08.36-.16.56-.28.76-.4 1.6-.72 2.4-1.04.24-.12.48-.2.72-.36l2.12-1.36c.36-.2.64-.4.84-.8.04-.12.16-.24.28-.32.32-.16.72-.08.84.28.08.24.24.4.44.52.16.12.24.28.2.48-.08.2 0 .28.2.36.12.08.12.32 0 .44-.2.28-.44.52-.68.72-.2.12-.36.28-.4.52 0 .12-.08.24-.16.32-.32.52-.56 1.08-.84 1.64-.16.32-.28.68-.6.88-.08.04-.04.16.04.2.2.12.4.16.64.08.28-.16.6-.28.92-.4.6-.28 1.24-.56 1.76-.96.08-.08.16-.12.24-.16l2.44-1.4c.84-.44 1.68-.96 2.6-1.24.16-.04.32-.12.52-.08.12 0 .2.04.2.16.04.08-.04.16-.12.2-.04.04-.12.08-.2.12-1.44.64-2.8 1.44-4.16 2.24l-1.56.92c-.92.52-1.84.96-2.84 1.24l-.2.08c-.04.04-.04.08-.04.08 0 .04.04.08.04.08.64.04 1.24 0 1.84-.28.8-.4 1.56-.88 2.32-1.36a.48.48 0 0 0 .2-.2l-.44.12a1.14 1.14 0 0 1 .56-.32l-.12.24c.52-.16.96-.44 1.36-.8.24 0 .44-.16.68-.28l2.28-1.24.56-.24c.08-.04.2-.04.28-.04.12 0 .2.08.24.2 0 .08-.04.16-.12.24-.12.08-.24.2-.4.28l-1.76 1-2.84 1.6-1.92 1.08c-.52.28-1.04.52-1.6.68-.16.04-.32.12-.52.2 0 0-.04.04-.04.08s.08.08.12.08c.4-.04.84-.16 1.24-.32.44-.16.88-.4 1.28-.64l6-3.48zm-9.84-1.8c.04-.04.04-.08 0-.12 0-.04-.08-.04-.08 0l-.84.44c-.72.48-1.48.88-2.28 1.2l-3.16 1.32-.2.08c0 .04-.04.08-.04.08.04.04.08.08.08.04l.6-.12v.12l.32-.12c.2 0 .4-.08.56-.2.2 0 .4-.08.56-.2.16-.04.32-.08.48-.16l2.04-.92c.28-.12.6-.24.8-.44.32-.16.68-.28.88-.6h-.24l.24-.12.28-.28zm-6.76-.08v-.04c-.04 0-.04.04-.04.08 0-.04 0-.04.04-.04zm15.88 1.04c.04-.04.12-.08.2-.12l-.2.12zm-.48.2l.24-.12c.08 0 .16-.04.24-.08l-.24.12c-.08 0-.16.04-.24.08zm-.4.28c-.04 0-.04 0-.08.04l.04-.04h.04zm-.08.04h-.04.04zm-.04.04c-.08.04-.16.04-.24.08l.24-.12v.04zm-.24.08c-.04.04-.12.08-.2.12l.2-.12zm-.68.36s-.04 0-.04.04c0-.04.04-.04.04-.08.08 0 .16-.04.24-.08l-.24.12zm-8.32.08c.04-.04.04-.08.04-.12-.04 0-.08-.04-.08-.04a1.95 1.95 0 0 0-.44.16l-4.12 1.76a1.95 1.95 0 0 0-.44.16c-.04 0-.08.04-.04.08 0 .04.04.04.08.04.24 0 .48-.08.68-.16l2.16-.84 1.76-.8c.16-.04.32-.12.4-.24zm8.28-.04c-.08.08-.2.12-.28.16.08-.08.2-.12.28-.16zm-.72.4c-.04.04-.08.12-.12.2h.04l-.48.12a1.14 1.14 0 0 1 .56-.32zm-.52.32l-.24.12c.08-.04.16-.08.2-.12h.04zm-.24.12a.87.87 0 0 1-.32.2.87.87 0 0 1 .32-.2zm-5.2.64v.04c0 .04.04.04.04 0v-.04h-.04zm4.08 0c-.04.04-.12.08-.2.12l.2-.12zm-.2.12c-.12.08-.2.16-.32.2a.87.87 0 0 1 .32-.2zm-.32.24c-.08.04-.16.04-.24.08l.24-.12v.04zm-1 .52c.08-.04.12-.08.2-.08l-.2.08zm-.44.24l.2-.12c-.04.04-.12.08-.2.12zm29.409-26.4c.12.08.16.24.08.36-.16.28-.28.56-.52.8l-1.56 1.52-2 1.88-1.92 1.84c-.08.04-.16.12-.24.24-.8.96-1.72 1.8-2.6 2.68-.2.24-.4.44-.52.72-.48.36-.88.8-1.32 1.24a.61.61 0 0 0-.16.4c0 .08 0 .16-.04.24-.28.28-.44.64-.76.88-.44.32-.76.72-1.08 1.12a4.84 4.84 0 0 1-.64.64h.04c-.4.32-.84.64-1.08 1.08-.08.12-.2.24-.28.32-1 .96-1.88 2.04-2.72 3.08-.24.32-.52.64-.84.88-.32.2-.52.52-.68.84-.04.08 0 .16.04.2-.08.16-.16.32-.28.48-.16.28-.36.56-.68.76 0 0-.04 0-.04.04-.2.12-.4.28-.32.52.04.2.24.32.48.4.08.04.2.04.32.04l2.16.04c.76-.04 1.56-.16 2.32-.28.2 0 .4-.08.6-.12l2.6-.68 2.52-.6c.16-.04.28-.08.44-.08.08-.04.16 0 .2.04.04 0 .12.04.12.12 0 .04-.04.08-.08.12s-.12.08-.2.08l-.4.12-5.48 1.48c-.44.12-.88.2-1.32.28-.16.04-.36.08-.52.2.16-.04.36-.04.52-.04.16-.04.32-.04.48-.08l1.2-.2-.4.24c.24 0 .44-.04.68-.08l5.28-1.44c.12-.04.24-.08.36-.08.12-.04.2 0 .28.08s.12.24 0 .32c-.12.12-.28.16-.44.24l-2.04.64-5.08 1.32c-.08 0-.12.04-.2.04l-.04.04c0 .04.04.04.04.04.04.04.12.04.16.04.8-.08 1.56-.2 2.32-.44l5.08-1.52c.08-.04.16-.04.2-.04s.08.04.08.04v.04c-.16.16-.32.2-.52.24l-3.36 1.08c-.56.16-1.12.28-1.6.52-.36.16-.76.16-1.16.24-.84.12-1.72.28-2.6.28-.04 0-.08 0-.12.04-.32 0-.4.08-.32.4.36 1.12.2 1.32-.28 2.12-.12.28-.28.56-.36.88-.04.24-.2.44-.36.6-.68.76-1.48 1.36-2.4 1.72-1.28.52-2.48.2-3.32-.92-.48-.64-.76-1.4-.76-2.24a2.48 2.48 0 0 1 .16-.92c.32-.92.76-1.8 1.28-2.6l1.12-1.92 1.16-1.68c.44-.56.84-1.16 1.24-1.76.36-.56.76-1.08 1.2-1.64l2.12-2.44c.28-.32.6-.56.84-.92.04-.08.16-.2.24-.28.52-.36.88-.84 1.28-1.28l.96-1.04 1.72-1.72 1.88-1.92c.28-.32.64-.56.96-.88l2.56-2.6 2.2-2c.16-.12.32-.28.48-.44.12-.12.2-.24.32-.32.6-.48 1.12-1 1.68-1.52.32-.28.68-.52 1.08-.68.04 0 .12-.04.2-.04.12-.04.24.04.2.16-.08.2-.04.32.16.4zm-7.08 7.92c.12-.12.24-.28.48-.4-.16.24-.32.32-.48.4zm-2 2.12c-.08.16-.2.36-.44.44l.24-.44h.2zm-10.28 11.52c.04 0 .08-.04.08-.12l-.04-.04c-.04 0-.08.04-.12.12 0 .04.04.08.08.04zm7.32 1.52l-.44.08.44-.12.44-.08-.44.12zm-.44.08c-.04.04-.04.04-.08.04.04 0 .04-.04.08-.04zm-1.68.44c.16-.08.32-.08.48-.08-.16.04-.32.08-.48.08zm-.52.24c-.04 0-.08.04-.04.04h.04c.04 0 .08-.04.08-.04h-.08zm-5.12 1.4c-.32-.04-.64-.16-.92-.32a1.95 1.95 0 0 0-.44-.16c-.2-.08-.36 0-.44.12-.2.32-.4.6-.44.96a2.09 2.09 0 0 1-.28.84l-.52 1.16c-.12.2-.2.44-.28.64l-.08.08c-.08-.04-.04-.08-.08-.16v-.04c-.04 0-.08 0-.08.04l-.12.28c-.12.48.28.76.76.76l.88-.2a2.04 2.04 0 0 0 1.04-.56l1.44-1.68c.16-.24.28-.52.4-.8.12-.36.04-.56-.24-.76-.2-.08-.4-.16-.6-.2zm-2.2 4.64c-.04 0-.12.04-.04.16l.6-.12c0 .04-.04.16.08.12.32-.04.6-.2.84-.44.08-.08.08-.16.08-.24.08-.16.2-.28.2-.44.36 0 .6-.16.8-.4 0-.04.04-.04.04-.08.04-.04.08-.08 0-.12 0 0-.08 0-.08.04-.24.2-.44.4-.76.56-.56.36-1.12.68-1.76.96zm2.88-.04c.12-.12.2-.24.24-.36-.28.04-.52.2-.72.36a7.02 7.02 0 0 1-1.68.96c-.12.04-.2.08-.28.16-.04 0-.08.04-.04.08 0 0 .04.04.08.04.32-.04.68-.16.96-.32.52-.24.96-.6 1.44-.92zm26.743-5.24c.04.2-.12.36-.36.48-.12.04-.24.04-.36.08-1.28.2-2.56.36-3.88.4l-1.36.08c-.76.04-1.52-.08-2.28-.12h-.48c-.04 0-.08.04-.08.04 0 .04.04.08.08.08.08.04.16.08.24.08.6.16 1.24.2 1.88.2.88.04 1.76 0 2.64-.08l2.52-.28.84-.16h.08c0 .04 0 .08-.04.08l-.12.08c-.16.04-.32.08-.48.08-1.88.28-3.8.48-5.68.48-.84 0-1.68-.08-2.48-.24-.72-.16-1.36-.52-1.88-1.04-.36-.36-.56-.76-.68-1.28-.08-.52-.28-.6-.68-.24l-.6.48-.12.12h.04.08l-.12.12c-.28.16-.6.36-.88.6-.08.08-.2.12-.32.16l-.24.24a.48.48 0 0 1-.2.2h-.12a.87.87 0 0 0-.2.32c-.04.24-.24.32-.36.48-.08.08-.16.12-.24.12-.16-.04-.28.04-.28.2-.04.16-.16.32-.28.44-.44.56-1 1.04-1.52 1.52-.12.16-.52.08-.6-.16-.08-.12-.12-.24-.28-.32s-.2-.2-.16-.36c0-.28.04-.6-.08-.88-.04-.2.08-.4.16-.56l1.68-2.8c.16-.28.32-.52.52-.8.16-.2.4-.2.52.08.04.08.04.2.08.28.12.2.28.28.48.16.12-.04.2-.12.32-.2l1.08-.92c.52-.44 1.04-.92 1.68-1.2.16-.04.32-.12.52-.16.28-.08.52 0 .64.28.28.56.56 1.08.6 1.72a.78.78 0 0 0 .04.28c0 .2.12.36.32.44.08.04.16.08.2.12.92.28 1.84.52 2.8.52l1.08.04c.2.04.4.04.6 0 .4-.04.84-.04 1.24-.04 1.04.04 2.08-.16 3.12-.12.2 0 .44-.08.68-.12h.36c.08 0 .16.04.16.16.04.08 0 .16-.08.2-.12.08-.24.16-.4.16-.12.04-.24.04-.36.08-.04 0-.08.04-.08.04 0 .08.04.12.12.12.12-.04.28-.04.44-.04.32-.08.48.08.52.28zm-12.16-3.48h.04l-.04-.04v.04zm10.12 3.28c.08 0 .16 0 .16-.08l-2.2.12c-1.44.04-2.84.08-4.24-.04-.08-.04-.2-.08-.2.08.32.16.68.12 1 .24h-.52c.28.16.6.2.92.2 1.32.08 2.64.04 3.96-.12.08-.04.16-.04.24-.08h-1.6c.2-.08.44-.08.68-.12l1.64-.16c.08 0 .12 0 .16-.04zm-.68.28h.28c-.04-.04-.08-.04-.12-.04s-.12 0-.16.04zm-4.8.04h3c-.2.04-.36.08-.56.08h-1.92c-.16 0-.36-.04-.52-.08zm24.202-2.68c.52.04.56.12.48.6 0 .08-.04.16 0 .24 0 .12-.08.24-.16.32-.16.08-.28.16-.4.28-.24.16-.52.28-.68.52-.12.04-.24.08-.36.16l-4.4 2.52c-.92.52-1.84.96-2.88 1.28a3.41 3.41 0 0 1-.92.12c-.28-.04-.48-.12-.68-.32-.48-.36-.76-.84-.8-1.44 0-.24 0-.48-.12-.72-.08-.12-.16-.16-.28-.12-.16.08-.28.12-.4.2l-1.96 1.04c-1.12.6-2.24 1.2-3.48 1.52-.24.08-.48.12-.76.16-.32.04-.64-.08-.88-.36-.08-.12-.2-.2-.28-.32-.28-.28-.4-.6-.44-1-.04-.2-.04-.4-.08-.6-.08-.76.16-1.44.68-2.04.12-.16.28-.32.44-.48.64-.76 1.4-1.44 2.28-1.96.28-.2.56-.36.8-.6.2-.2.48-.36.72-.48.6-.36 1.24-.72 1.96-.92 0 0 .04 0 .08-.04.2-.04 1.6-.16 1.8-.12.56.08.92.44 1.2.92.08.16.16.4.24.6.08.12.12.28.2.4.04.08.12.12.24.08.04 0 .08-.04.16-.08.32-.08.6.04.64.36s.08.56.32.76c.04.04.08.12.08.2.08.16-.08.28-.08.44-.04.16.16.28.16.48-.04.08-.08.16-.16.2-.52.36-.68.96-.96 1.48-.04.04-.04.12 0 .2.08.04.12.04.2.04.52-.16 1.04-.32 1.48-.6l2.2-1.24.28-.12c.64-.44 1.36-.72 2-1.12.16-.08.28-.16.44-.2.44-.08.8-.28 1.2-.48.2-.12.44-.24.68-.32.12-.04.24.08.24.16a.99.99 0 0 1-.16.36c.04 0 .08 0 .12.04zm-13.68-1.12c-.32.08-.6.2-.8.44.32-.08.6-.2.8-.44.12-.04.24-.04.36-.08l2.2-.52c.12 0 .24-.04.4-.08.04-.04.04-.08.04-.12 0-.08 0-.16-.08-.2-.08 0-.16-.04-.24-.04-.44 0-.88.12-1.36.24s-.96.28-1.32.68v.12zm3.08.12c-.04-.04-.08-.08-.16-.08h-.12c-.6 0-1.64.28-2.12.56l-.12.12v.04c0 .04 0 .04.04.04.16.04.28 0 .4-.08.56-.2 1.12-.36 1.72-.44.08 0 .16-.04.24-.04s.12-.04.12-.12zm.32.84c.12-.2.04-.36-.2-.44-.16-.04-.32-.08-.48-.04-.96.12-1.88.44-2.64 1.08-.04.04-.08.04-.08.08-.2.04-.36.16-.52.28l-1.52 1.2-1.4 1.4c-.08.08-.12.16-.12.24-.04.04 0 .12.04.16 0 .04.08.04.12.04.08 0 .16-.04.2-.08.28-.16.56-.24.88-.32.36-.12.68-.28 1-.48a.87.87 0 0 1 .32-.2l2.44-1.28 1.2-.76c.32-.24.56-.56.76-.88zm9.76.44l.08-.08c-.04 0-.04 0-.08.04-.04 0-.04.04-.04.04h.04zm-4.68 2.56c-.12.08-.24.12-.32.24a.62.62 0 0 0 .32-.24zm-6.44.56c.04-.04.04-.08.04-.08 0-.08-.08-.08-.12-.08s-.12 0-.16.04l-1.28.64c-.68.44-1.44.76-2.16 1.12-.72.32-1.44.64-2.24.76l-.24.12c-.04 0-.04.04-.04.08s.04.04.04.08h.2c.36 0 .64-.08.96-.2a11.06 11.06 0 0 0 1.88-.8l1.72-.84c.44-.24.84-.56 1.32-.76.04-.04.08-.04.08-.08zm-6.08.28v.04c.04 0 .08-.04.08-.04s0-.04.04-.04c-.04 0-.08 0-.12.04zm13.08.24c.04 0 .16-.04.12-.12 0-.12-.12-.08-.16-.08a1.24 1.24 0 0 0-.52.24c-.2.12-.36.28-.6.36-.48.12-.92.36-1.36.6-.56.28-1.12.48-1.72.56-.12 0-.2.04-.32.08-.04 0-.04.04-.04.08s0 .08.04.08l.16.04c.36.04.68-.04.96-.16l2.28-1 .48-.32c.12-.08.12-.2.12-.32.2.04.36.08.56-.04zm-10.72.16c.08-.04.12-.04.16-.04s.04-.04.08-.08h-.08c-.08.04-.12.08-.16.12zm-2.64.84c0 .16.08.28.24.24.32 0 .64-.12.96-.24.24-.08.36-.28.36-.52a.56.56 0 0 0 .76-.08l.2-.12c-.36-.08-.68-.04-.96.2-.48.04-.92.2-1.4.32-.12 0-.2.08-.16.2zm8.96-.52c-.04 0-.04.04-.04.08l.08.04c.2 0 .4-.08.56-.16.04 0 .04-.04.04-.04l-.08-.08c-.2.04-.4.04-.56.16zm.28.24c-.08-.04-.24-.04-.28.04 0 .04 0 .08.04.08.08.04.16 0 .24-.04v-.04-.04zm35.924-2.36c.04.08-.04.12-.08.16l-.2.08-1.08.52-3.76 1.44-2.6 1.16c-.44.2-.92.4-1.44.56-.44.12-.8.04-1.12-.32s-.56-.72-.6-1.2c-.04-.32-.12-.64-.08-1 .04-.48.24-.88.48-1.28.16-.24.12-.56.28-.8 0-.04-.04-.08-.08-.08-.12 0-.24.08-.36.12a13.13 13.13 0 0 0-1.52 1.08l-4.12 3.04c-.72.48-1.44.92-2.24 1.24a1.98 1.98 0 0 1-.52.16c-.2.04-.36.08-.4-.2 0-.04-.08-.08-.12-.12-.04 0-.12 0-.2-.04-.28-.04-.44-.24-.52-.52l-.16-.96c-.04-.28.04-.48.12-.68l1.36-2.44c.12-.2.32-.44.28-.76 0-.04.08-.08.12-.16.04-.04.04-.08.04-.08-.04-.04-.08-.04-.12-.04l-.24.12-2.4 1.16-2.88 1.44-2 .88c-.28.12-.6.24-.92.32-.8.2-1.56-.24-1.76-1-.08-.36-.12-.72-.16-1.08-.04-.32 0-.64.16-.92l1.6-3.2c.24-.4.56-.68.88-.96.12-.12.28-.2.44-.24h.12v.12c-.04.12-.2.2-.16.36.08.08.16 0 .24-.04.12-.04.24-.04.32.04.08.12.08.24.04.36l-.28.48-.52.88c-.12.2-.24.44-.36.68-.16.24 0 .48-.08.72v.04c-.12 0-.2 0-.24.08-.12.2-.2.36-.24.56l-.16.28c-.08.2 0 .36.2.44a.62.62 0 0 0 .48-.08c.36-.2.76-.36 1.16-.44.36-.08.68-.28.96-.48.24-.16.48-.28.72-.4.2-.08.4-.2.6-.32.32-.16.6-.32.96-.4.24-.08.48-.24.72-.4.12-.12.28-.24.44-.32.8-.28 1.48-.72 2.28-.96.2-.04.36-.16.56-.28.32-.16.64-.28 1-.24.28 0 .52.08.64.4.08.2.16.36.28.52.36.56.44 1.16.08 1.72l-.32.6c-.04.12-.12.24-.08.36.08.28-.04.48-.16.68-.12.16-.24.32-.24.52-.04.12.08.2.16.16a.87.87 0 0 0 .32-.2c.24-.12.4-.28.64-.44.56-.32 1.04-.72 1.52-1.16.44-.4.96-.72 1.44-1 .24-.12.48-.24.68-.4.6-.48 1.28-.84 1.96-1.24l1.36-.64c.36-.16.72-.04.88.36.12.2.2.4.32.56.36.52.4 1.08.12 1.64l-1.12 2.04c-.28.44-.16.48.32.56.16.04.32 0 .48-.08l2.2-.96c.64-.32 1.32-.56 2-.8l1.64-.64c.32-.16.68-.24 1-.32.24-.04.36 0 .44.16.08.12-.04.24-.28.32l-2.28.88c-1.8.64-3.56 1.4-5.32 2.2l-.44.24c-.04 0-.04.04-.04.08.04 0 .08.04.08.04l.32-.12 1.8-.84c.44-.16.88-.4 1.36-.48-.16.12-.32.2-.44.32.68-.16 1.36-.4 2-.76l-.68.08c.44-.24.92-.44 1.44-.52-.24.2-.56.2-.8.44.88-.2 1.72-.56 2.52-.96l.04-.04h-.32c.24-.2.56-.28.88-.32v.08h.48c.16 0 .24.08.28.24.04.12-.04.24-.16.32-.52.28-1.08.48-1.6.72l-4.24 1.64-1.44.68c-.6.28-1.16.52-1.8.68l-.12.08c-.04.04-.04.08-.04.12 0 0 .04.04.08.04h.28l.56-.2 1.2-.56c1.2-.6 2.44-1.04 3.68-1.52l2.92-1.2a1.98 1.98 0 0 1 .52-.16h.16zm-27.4 1.52c.04.08.12.12.2.08.2-.04.44-.08.64-.16l3.04-1.44c.16-.08.32-.16.44-.32-.16-.04-.28.16-.44.04.32-.16.64-.36 1-.48 0 .12.08.16.2.12l.32-.24h-.32a1.48 1.48 0 0 1 .44-.2c-.04.08-.04.16-.08.2.16-.04.24-.12.32-.2.16-.04.32-.12.44-.24.08-.04.16-.08.2-.08h-.2c.08-.04.16-.08.2-.12 0 .04.04.04.04.08 0-.04 0-.08-.04-.08l.12-.24 1-.32c-.08.08-.12.12-.16.2a2.54 2.54 0 0 0 1.16-.52h-.36c.24-.16.52-.28.8-.36l-.24.24c.36-.04.68-.24 1-.28.28-.08.32-.28.4-.48.04-.04-.04-.12-.12-.12l-.44.12-2.56 1.16c-.16.12-.36.2-.48.36-.28 0-.48.12-.72.24l-3.84 1.92-1.52.68c-.16.04-.28.08-.4.2-.08.04-.04.16-.04.24zm17.48-4.36c.24-.04.48-.12.64-.36.16 0 .28 0 .44-.08.04 0 .08-.08.04-.12h-.12c-.12.04-.24.12-.36.2-.24.08-.44.2-.64.36zm-8.52.08c.08-.04.16-.04.24-.08-.08.04-.16.08-.24.08zm8.04.24c-.44.04-.68.24-.84.64.16-.04.28-.04.4-.12l1-.64-.56.12zm-8.48 1.24c.2-.08.4-.16.6-.28l.16-.12c.04 0 .04-.08.04-.08 0-.08-.08-.12-.12-.08-.16.04-.32.12-.52.2-1.32.56-2.56 1.32-3.88 1.96l-3.24 1.52-1.04.4-.36.12c0 .04-.04.08-.04.12 0 0 .04.04.08.04a1.66 1.66 0 0 0 .64-.12l1.6-.64 2.28-1.16 3.8-1.88zm7.28-.36c.12-.04.2-.08.28-.2-.12.04-.2.08-.28.2a.62.62 0 0 0-.32.24c.12-.08.24-.12.32-.24zm1.76.24c.08-.04.12-.08.08-.16 0-.04-.12-.04-.16 0l-.88.52c-.12.04-.2.16-.24.28.44-.12.8-.44 1.2-.64zm-11.6.08l.24-.12v.04.08h-.24zm7.84 1c.56-.2 1.04-.56 1.44-1-.56.2-1.04.56-1.44 1zm-8.28-.76l.24-.12v.12h-.24zm-4.72.12c-.08.08-.16.12-.24.08.08 0 .16-.04.24-.08zm24.4.52c.16-.12.36-.2.56-.2-.16.12-.36.2-.56.2zm0 0v.04c-.12 0-.24.04-.32.08l.32-.12zm-.88.36c.16-.12.32-.2.56-.24-.16.12-.36.2-.56.24zm-5.08.12c0-.04.04 0 .04 0v.04h-.04v-.04zm-6.32.32c.16-.04.24-.12.36-.24-.16.04-.24.12-.36.24zm9.96.08v.04h-.08c.04 0 .08-.04.08-.04zm-.56.24c.16-.12.32-.2.48-.2-.12.08-.32.16-.48.2zm-9.92.12a.62.62 0 0 0 .32-.24.62.62 0 0 0-.32.24zm9.6 0l.32-.12-.32.12zm-12.04.24l-.04.04h.04v-.04zm12.92 1.2c.08-.04.16-.08.2-.12h.04l-.24.12zm-4.32.2c-.24.04-.4.12-.32.16.16 0 .24-.08.32-.16.2 0 .4-.08.56-.2-.2 0-.4.08-.56.2zm-6.96.44c.04-.04.04-.08 0-.08 0-.04-.04-.04-.08-.04-.2.04-.36.16-.52.28-.72.44-1.4.88-2.2 1.16-.08.08-.16.12-.28.16-.04.04-.04.12 0 .16 0 .04.04.04.08.04.08 0 .16 0 .2-.04l.52-.2c.76-.36 1.44-.92 2.16-1.32l.12-.12zm32.074-5.16c.52.04.56.12.48.6 0 .08-.04.16 0 .24 0 .12-.08.24-.16.32-.16.08-.28.16-.4.28-.24.16-.52.28-.68.52-.12.04-.24.08-.36.16l-4.4 2.52c-.92.52-1.84.96-2.88 1.28a3.41 3.41 0 0 1-.92.12c-.28-.04-.48-.12-.68-.32-.48-.36-.76-.84-.8-1.44 0-.24 0-.48-.12-.72-.08-.12-.16-.16-.28-.12-.16.08-.28.12-.4.2l-1.96 1.04c-1.12.6-2.24 1.2-3.48 1.52-.24.08-.48.12-.76.16-.32.04-.64-.08-.88-.36-.08-.12-.2-.2-.28-.32-.28-.28-.4-.6-.44-1-.04-.2-.04-.4-.08-.6-.08-.76.16-1.44.68-2.04.12-.16.28-.32.44-.48.64-.76 1.4-1.44 2.28-1.96.28-.2.56-.36.8-.6.2-.2.48-.36.72-.48.6-.36 1.24-.72 1.96-.92 0 0 .04 0 .08-.04.2-.04 1.6-.16 1.8-.12.56.08.92.44 1.2.92.08.16.16.4.24.6.08.12.12.28.2.4.04.08.12.12.24.08.04 0 .08-.04.16-.08.32-.08.6.04.64.36s.08.56.32.76c.04.04.08.12.08.2.08.16-.08.28-.08.44-.04.16.16.28.16.48-.04.08-.08.16-.16.2-.52.36-.68.96-.96 1.48-.04.04-.04.12 0 .2.08.04.12.04.2.04.52-.16 1.04-.32 1.48-.6l2.2-1.24.28-.12c.64-.44 1.36-.72 2-1.12.16-.08.28-.16.44-.2.44-.08.8-.28 1.2-.48.2-.12.44-.24.68-.32.12-.04.24.08.24.16a.99.99 0 0 1-.16.36c.04 0 .08 0 .12.04zm-13.68-1.12c-.32.08-.6.2-.8.44.32-.08.6-.2.8-.44.12-.04.24-.04.36-.08l2.2-.52c.12 0 .24-.04.4-.08.04-.04.04-.08.04-.12 0-.08 0-.16-.08-.2-.08 0-.16-.04-.24-.04-.44 0-.88.12-1.36.24s-.96.28-1.32.68v.12zm3.08.12c-.04-.04-.08-.08-.16-.08h-.12c-.6 0-1.64.28-2.12.56l-.12.12v.04c0 .04 0 .04.04.04.16.04.28 0 .4-.08.56-.2 1.12-.36 1.72-.44.08 0 .16-.04.24-.04s.12-.04.12-.12zm.32.84c.12-.2.04-.36-.2-.44-.16-.04-.32-.08-.48-.04-.96.12-1.88.44-2.64 1.08-.04.04-.08.04-.08.08-.2.04-.36.16-.52.28l-1.52 1.2-1.4 1.4c-.08.08-.12.16-.12.24-.04.04 0 .12.04.16 0 .04.08.04.12.04.08 0 .16-.04.2-.08.28-.16.56-.24.88-.32.36-.12.68-.28 1-.48a.87.87 0 0 1 .32-.2l2.44-1.28 1.2-.76c.32-.24.56-.56.76-.88zm9.76.44l.08-.08c-.04 0-.04 0-.08.04-.04 0-.04.04-.04.04h.04zm-4.68 2.56c-.12.08-.24.12-.32.24a.62.62 0 0 0 .32-.24zm-6.44.56c.04-.04.04-.08.04-.08 0-.08-.08-.08-.12-.08s-.12 0-.16.04l-1.28.64c-.68.44-1.44.76-2.16 1.12-.72.32-1.44.64-2.24.76l-.24.12c-.04 0-.04.04-.04.08s.04.04.04.08h.2c.36 0 .64-.08.96-.2a11.06 11.06 0 0 0 1.88-.8l1.72-.84c.44-.24.84-.56 1.32-.76.04-.04.08-.04.08-.08zm-6.08.28v.04c.04 0 .08-.04.08-.04s0-.04.04-.04c-.04 0-.08 0-.12.04zm13.08.24c.04 0 .16-.04.12-.12 0-.12-.12-.08-.16-.08a1.24 1.24 0 0 0-.52.24c-.2.12-.36.28-.6.36-.48.12-.92.36-1.36.6-.56.28-1.12.48-1.72.56-.12 0-.2.04-.32.08-.04 0-.04.04-.04.08s0 .08.04.08l.16.04c.36.04.68-.04.96-.16l2.28-1 .48-.32c.12-.08.12-.2.12-.32.2.04.36.08.56-.04zm-10.72.16c.08-.04.12-.04.16-.04s.04-.04.08-.08h-.08a.55.55 0 0 0-.16.12zm-2.64.84c0 .16.08.28.24.24.32 0 .64-.12.96-.24.24-.08.36-.28.36-.52a.56.56 0 0 0 .76-.08l.2-.12c-.36-.08-.68-.04-.96.2-.48.04-.92.2-1.4.32-.12 0-.2.08-.16.2zm8.96-.52c-.04 0-.04.04-.04.08l.08.04c.2 0 .4-.08.56-.16.04 0 .04-.04.04-.04l-.08-.08c-.2.04-.4.04-.56.16zm.28.24c-.08-.04-.24-.04-.28.04 0 .04 0 .08.04.08.08.04.16 0 .24-.04v-.04-.04zm28.283-2.2c.32.28.28.6-.08.76-.16.08-.36.16-.52.2l-2.12.6c-1.48.4-2.88 1.04-4.32 1.56l-2 .8c-.4.16-.84.28-1.28.4-.12.04-.24.04-.36.12-.04 0-.08.04-.08.08 0 .08.08.12.12.12.2-.04.44-.04.64-.12l1.28-.4 3.04-1.24a22.65 22.65 0 0 1 3.16-1.08l2.04-.64c.12-.04.24-.12.36-.08.04 0 .04 0 .04.04v.04c-.04.04-.12.12-.16.12l-1.32.44-3.2 1.04-2.72 1.08c-.92.4-1.84.72-2.8 1-.36.08-.68.16-1.04-.04-.36-.24-.76-.52-.88-1-.08-.32-.12-.64-.16-.92-.08-.48 0-.88.28-1.28l.96-1.28.72-.84c.2-.2.28-.44.36-.72-.16-.04-.24 0-.36.04l-2.24.92-4.8 2.32c-1 .48-1.96.96-3.04 1.24l-.4.12c-.32.04-.6-.04-.84-.2-.44-.32-.72-.68-.72-1.24 0-.08-.04-.16-.04-.2-.16-.64 0-1.2.32-1.76.68-1.04 1.4-2 2.24-2.92.16-.2.32-.36.52-.52.16-.12.28-.08.4.08l.2.32c.16.28.16.56 0 .84l-.52.84c-.12.2-.28.36-.28.6-.36.32-.6.76-.88 1.12-.04.08-.04.16.04.2.28.16.56.2.84.08.36-.2.72-.36 1.12-.44.08 0 .12-.04.16-.08.64-.4 1.32-.64 1.96-1 .72-.4 1.48-.68 2.2-1.08l2-.88c.48-.24 1.04-.36 1.52-.64.24-.12.48-.16.72-.24l.92-.24c.64-.16 1.12.04 1.4.64.08.2.2.36.28.56.24.52.24 1.04-.16 1.52l-1.4 1.8c-.08.16-.24.32-.4.44-.08.12-.04.2.16.24-.12.2-.2.44-.32.64-.04.12.08.24.2.2h.08c.6-.36 1.28-.44 1.88-.72l1.92-.8c.56-.24 1.2-.44 1.8-.6l2.32-.64c.2-.08.44-.08.64-.12.16-.04.28 0 .36.12.08.08.08.2 0 .28-.04.12 0 .24.12.32l.12.08zm-12.92-1.92c-.24.08-.52.2-.72.4l.32.12a1.24 1.24 0 0 0 .72-.36 1.1 1.1 0 0 1 .6-.32v.12c.44-.12.88-.2 1.24-.44.08-.04.16 0 .24-.04l1.76-.52c.04 0 .04-.04.08-.04.12-.08.12-.28.24-.36-.08-.16-.24-.12-.36-.08-.48.04-.92.2-1.36.4l-2.76 1.12zm2.36-.72c.16-.12.36-.2.56-.2-.16.12-.36.2-.56.2zm-.24.08c.04-.04.16-.04.24-.08l-.24.24c-.04-.04-.12-.08 0-.16zm0 .16h.04-.04zm-.28 1.24l1.24-.48c.16-.08.32-.12.44-.24v-.12h-.04-.24l-3.28 1.32-4.52 2.2c-.96.48-1.96.96-3.04 1.24-.12.04-.2.04-.28.08-.04.04-.08.08-.04.16 0 0 .04 0 .08.04.36 0 .68-.12 1-.24l2.28-1c2.08-1.12 4.24-2.08 6.4-2.96zm-3-.16c-.28.04-.48.12-.64.32.24-.04.44-.12.64-.32zm-.68.36c-.52.08-1 .32-1.44.64l.56-.12c.32.08.6-.08.84-.24.12-.08.12-.2.04-.28zm-5.88 2.6c-.12.08-.16.2-.16.32 0 .08.08.16.16.12.44-.08.88-.2 1.24-.52h-.32c.16-.12.36-.2.56-.24v.04.08s.04 0 .04-.04c-.04 0-.04-.04-.04-.04.32-.28.72-.4 1.08-.56 0 .08-.04.12-.08.2.16-.04.28-.12.44-.2.56-.16 1.08-.4 1.32-1-.48.16-.92.32-1.32.56-.84.44-1.68.88-2.6 1.16l-.32.12zm19.8-1.64c.04-.04.04-.08-.04-.12-.04 0-.12 0-.2.04l-4.04 1.2a2.55 2.55 0 0 0-.56.32 2.14 2.14 0 0 0-1.12.44c-.48.08-.96.28-1.4.48-.52.24-1.08.44-1.6.64l-.36.12c-.08.04-.16.08-.08.16 0 .04.08.04.12.04-.04.04-.12.08-.2.12-.04 0-.12.04-.12.12 0 .04.12.04.16.04.32-.08.68-.16.96-.36a1.24 1.24 0 0 0 .52-.24c-.2.04-.4.08-.56.2l-.76.12 1.92-.76c.24-.12.48-.2.76-.24l-.04.04-.2.2c-.2 0-.36.08-.52.2.2 0 .36-.08.52-.2a.79.79 0 0 0 .56-.24c-.12 0-.24 0-.36.04l.68-.48c.2-.04.44-.08.68-.08-.08.04-.16.12-.24.2-.04 0-.08 0-.16.04l-.04.04s.04.04.08 0c.04 0 .08-.04.12-.08.32-.04.64-.12.88-.32.2-.04.4-.08.56-.24.2 0 .36-.04.52-.08.4-.16.8-.28 1.2-.4l1.8-.48c.2-.04.36-.08.52-.2.08-.08 0-.12-.08-.16h.04c.04-.04.08-.08.08-.12zm-1.32.44c-.16.08-.28.12-.44.12.12-.08.28-.08.44-.12zm-.76.24h-.04l.36-.12-.32.12zm-15.16.12l.36-.12v.12h-.36zm15.16-.12c-.16.08-.32.08-.44.12l.44-.12zm-.84.24l.04-.04c.12 0 .24-.04.36-.08l-.36.12h-.04zm0 0c-.08.04-.2.08-.28.08.08-.04.2-.08.28-.08zm-1.92.52c.32 0 .64-.16.96-.2l-.2.2a.79.79 0 0 0-.56.24l-.68.12.48-.36zm11.932-9.84c.08-.24.08-.48 0-.76-.04-.12 0-.28.12-.4.52-.56.96-1.2 1.6-1.68.2-.12.4-.32.56-.48.4-.36.84-.64 1.28-.88.08-.04.16-.08.24-.08.2-.08.36-.04.36.08.04.12-.08.16-.16.24l-.4.4c.2-.08.36-.12.56-.16.12-.04.24-.04.32.08.04.08.08.16.04.28-.08.24-.24.36-.4.52l-.4.36c-.08.08-.08.16 0 .24h-.04c-.04.16-.12.28-.28.4-.32.24-.6.56-.88.84-.2.16-.36.32-.6.4-.04-.2-.12-.04-.2 0-.24.2-.48.4-.68.64l-.24.24c-.24.2-.44.2-.68-.04-.08-.04-.12-.12-.12-.24zm1.72-.48v-.12h.2l-.04.16c-.04.04-.08.08-.12.08-.08 0-.08-.08-.04-.12zm2.64 8.84c.2-.04.4-.04.36.04-.08.12-.2.12-.28.16l-3.68 1.16c-1.04.28-2.08.68-3.08 1.12l-2.12.8c-.48.16-.96.28-1.48.4 0 .04-.04.04-.04.04-1.08.16-1.88-.48-2-1.56 0-.12-.04-.28-.04-.44-.12-.4 0-.8.2-1.16.48-.76 1-1.52 1.6-2.2l1.24-1.36a1.14 1.14 0 0 1 .56-.32c.28 0 .36.08.24.32 0 .04-.04.08-.04.12 0 .12.04.12.12.08.16-.08.24-.04.36.04.12.12.16.24.12.4 0 .12-.08.24-.16.36-.12.16-.24.28-.4.44-.16.24-.36.48-.32.8 0 .2-.12.36-.28.48-.28.28-.48.64-.72.96-.08.08-.12.24-.16.36-.04.08.04.2.16.2l.48-.12 1.88-.64c.32-.12.64-.24.92-.4a6.15 6.15 0 0 1 1.88-.64 4.22 4.22 0 0 0 .96-.24c.24-.12.52-.2.76-.32.8-.32 1.6-.32 2.44-.48h.28c.12 0 .2.12.2.2-.04.12-.12.16-.2.16-1 .16-1.96.44-2.92.72-1.52.4-3 .96-4.44 1.6a18.86 18.86 0 0 1-2.76.96c-.08.04-.12.04-.16.08-.04 0-.12.04-.08.12 0 .04.04.08.12.08h.12c-.04.04-.12.08-.12.12 0 .08.08.08.12.08.64-.12 1.2-.28 1.76-.64h-.32c.6-.32 1.2-.64 1.88-.8l-.04.04-.2.2a.79.79 0 0 0 .56-.24c-.12 0-.24.04-.36.04.48-.32 1.04-.48 1.56-.68a2.79 2.79 0 0 1 .76-.24c-.04.08-.12.16-.2.24-.12 0-.24.04-.32.12.12-.04.2-.04.32-.12.24 0 .48-.08.68-.24.2.04.36-.04.56-.08l2.48-.68a1.98 1.98 0 0 0 .52-.16c.08 0 .12-.04.16-.08l-.04-.08h-.16c.16-.08.32-.12.52-.12.16.04.28.12.44.16.08.08.16.16.16.28a.27.27 0 0 1-.16.24c-.16.08-.32.12-.48.2l-3.24.92c-1.32.36-2.6.92-3.88 1.44l-1.92.72c-.4.12-.8.2-1.24.28l-.24.12s-.04 0 0 .04c0 .04 0 .08.04.08.12.04.24.04.36 0 .64-.08 1.24-.28 1.8-.48l2.48-1c1.12-.48 2.32-.88 3.48-1.2.84-.2 1.64-.44 2.44-.72.08-.04.16-.04.2-.08zm-.24-1h.04-.04zm-.96.2v.04l-.44.08c.12-.04.28-.08.44-.12zm-.88.24l.44-.12-.44.12zm-.44.12c.12-.08.28-.12.44-.12-.16.08-.32.08-.44.12zm-.8.2c.24-.12.52-.16.8-.2a1.82 1.82 0 0 1-.8.2zm-.76.24c.24-.16.52-.2.76-.24-.24.16-.48.24-.76.24zm0 0c-.08.08-.16.16-.24.2h-.44c.24-.12.44-.2.68-.2zm-.2.2h-.04.04zm-5 1.8l.32-.12h.04l-.36.12zm0 0c-.08.04-.2.04-.32.08.12-.04.2-.08.32-.08zm25.902-4.4c.52.04.56.12.48.6 0 .08-.04.16 0 .24 0 .12-.08.24-.16.32-.16.08-.28.16-.4.28-.24.16-.52.28-.68.52-.12.04-.24.08-.36.16l-4.4 2.52c-.92.52-1.84.96-2.88 1.28a3.41 3.41 0 0 1-.92.12c-.28-.04-.48-.12-.68-.32-.48-.36-.76-.84-.8-1.44 0-.24 0-.48-.12-.72-.08-.12-.16-.16-.28-.12-.16.08-.28.12-.4.2l-1.96 1.04c-1.12.6-2.24 1.2-3.48 1.52-.24.08-.48.12-.76.16-.32.04-.64-.08-.88-.36-.08-.12-.2-.2-.28-.32-.28-.28-.4-.6-.44-1-.04-.2-.04-.4-.08-.6-.08-.76.16-1.44.68-2.04.12-.16.28-.32.44-.48.64-.76 1.4-1.44 2.28-1.96.28-.2.56-.36.8-.6.2-.2.48-.36.72-.48.6-.36 1.24-.72 1.96-.92 0 0 .04 0 .08-.04.2-.04 1.6-.16 1.8-.12.56.08.92.44 1.2.92.08.16.16.4.24.6.08.12.12.28.2.4.04.08.12.12.24.08.04 0 .08-.04.16-.08.32-.08.6.04.64.36s.08.56.32.76c.04.04.08.12.08.2.08.16-.08.28-.08.44-.04.16.16.28.16.48-.04.08-.08.16-.16.2-.52.36-.68.96-.96 1.48-.04.04-.04.12 0 .2.08.04.12.04.2.04.52-.16 1.04-.32 1.48-.6l2.2-1.24.28-.12c.64-.44 1.36-.72 2-1.12.16-.08.28-.16.44-.2.44-.08.8-.28 1.2-.48.2-.12.44-.24.68-.32.12-.04.24.08.24.16a.99.99 0 0 1-.16.36c.04 0 .08 0 .12.04zm-13.68-1.12c-.32.08-.6.2-.8.44.32-.08.6-.2.8-.44.12-.04.24-.04.36-.08l2.2-.52c.12 0 .24-.04.4-.08.04-.04.04-.08.04-.12 0-.08 0-.16-.08-.2-.08 0-.16-.04-.24-.04-.44 0-.88.12-1.36.24s-.96.28-1.32.68v.12zm3.08.12c-.04-.04-.08-.08-.16-.08h-.12c-.6 0-1.64.28-2.12.56l-.12.12v.04c0 .04 0 .04.04.04.16.04.28 0 .4-.08.56-.2 1.12-.36 1.72-.44.08 0 .16-.04.24-.04s.12-.04.12-.12zm.32.84c.12-.2.04-.36-.2-.44-.16-.04-.32-.08-.48-.04-.96.12-1.88.44-2.64 1.08-.04.04-.08.04-.08.08-.2.04-.36.16-.52.28l-1.52 1.2-1.4 1.4c-.08.08-.12.16-.12.24-.04.04 0 .12.04.16 0 .04.08.04.12.04.08 0 .16-.04.2-.08.28-.16.56-.24.88-.32.36-.12.68-.28 1-.48a.87.87 0 0 1 .32-.2l2.44-1.28 1.2-.76c.32-.24.56-.56.76-.88zm9.76.44l.08-.08c-.04 0-.04 0-.08.04-.04 0-.04.04-.04.04h.04zm-4.68 2.56c-.12.08-.24.12-.32.24a.62.62 0 0 0 .32-.24zm-6.44.56c.04-.04.04-.08.04-.08 0-.08-.08-.08-.12-.08s-.12 0-.16.04l-1.28.64c-.68.44-1.44.76-2.16 1.12-.72.32-1.44.64-2.24.76l-.24.12c-.04 0-.04.04-.04.08s.04.04.04.08h.2c.36 0 .64-.08.96-.2a11.06 11.06 0 0 0 1.88-.8l1.72-.84c.44-.24.84-.56 1.32-.76.04-.04.08-.04.08-.08zm-6.08.28v.04c.04 0 .08-.04.08-.04s0-.04.04-.04c-.04 0-.08 0-.12.04zm13.08.24c.04 0 .16-.04.12-.12 0-.12-.12-.08-.16-.08a1.24 1.24 0 0 0-.52.24c-.2.12-.36.28-.6.36-.48.12-.92.36-1.36.6-.56.28-1.12.48-1.72.56-.12 0-.2.04-.32.08-.04 0-.04.04-.04.08s0 .08.04.08l.16.04c.36.04.68-.04.96-.16l2.28-1 .48-.32c.12-.08.12-.2.12-.32.2.04.36.08.56-.04zm-10.72.16c.08-.04.12-.04.16-.04s.04-.04.08-.08h-.08c-.08.04-.12.08-.16.12zm-2.64.84c0 .16.08.28.24.24.32 0 .64-.12.96-.24.24-.08.36-.28.36-.52a.56.56 0 0 0 .76-.08l.2-.12c-.36-.08-.68-.04-.96.2-.48.04-.92.2-1.4.32-.12 0-.2.08-.16.2zm8.96-.52c-.04 0-.04.04-.04.08l.08.04c.2 0 .4-.08.56-.16.04 0 .04-.04.04-.04l-.08-.08c-.2.04-.4.04-.56.16zm.28.24c-.08-.04-.24-.04-.28.04 0 .04 0 .08.04.08.08.04.16 0 .24-.04v-.04-.04zm28.284-2.2c.32.28.28.6-.08.76-.16.08-.36.16-.52.2l-2.12.6c-1.48.4-2.88 1.04-4.32 1.56l-2 .8c-.4.16-.84.28-1.28.4-.12.04-.24.04-.36.12-.04 0-.08.04-.08.08 0 .08.08.12.12.12.2-.04.44-.04.64-.12l1.28-.4 3.04-1.24a22.65 22.65 0 0 1 3.16-1.08l2.04-.64c.12-.04.24-.12.36-.08.04 0 .04 0 .04.04v.04c-.04.04-.12.12-.16.12l-1.32.44-3.2 1.04-2.72 1.08c-.92.4-1.84.72-2.8 1-.36.08-.68.16-1.04-.04-.36-.24-.76-.52-.88-1-.08-.32-.12-.64-.16-.92a1.62 1.62 0 0 1 .28-1.28l.96-1.28.72-.84c.2-.2.28-.44.36-.72-.16-.04-.24 0-.36.04l-2.24.92-4.8 2.32c-1 .48-1.96.96-3.04 1.24l-.4.12c-.32.04-.6-.04-.84-.2-.44-.32-.72-.68-.72-1.24 0-.08-.04-.16-.04-.2-.16-.64 0-1.2.32-1.76.68-1.04 1.4-2 2.24-2.92.16-.2.32-.36.52-.52.16-.12.28-.08.4.08l.2.32c.16.28.16.56 0 .84l-.52.84c-.12.2-.28.36-.28.6-.36.32-.6.76-.88 1.12-.04.08-.04.16.04.2.28.16.56.2.84.08.36-.2.72-.36 1.12-.44.08 0 .12-.04.16-.08.64-.4 1.32-.64 1.96-1 .72-.4 1.48-.68 2.2-1.08l2-.88c.48-.24 1.04-.36 1.52-.64.24-.12.48-.16.72-.24l.92-.24c.64-.16 1.12.04 1.4.64.08.2.2.36.28.56.24.52.24 1.04-.16 1.52l-1.4 1.8c-.08.16-.24.32-.4.44-.08.12-.04.2.16.24-.12.2-.2.44-.32.64-.04.12.08.24.2.2h.08c.6-.36 1.28-.44 1.88-.72l1.92-.8c.56-.24 1.2-.44 1.8-.6l2.32-.64c.2-.08.44-.08.64-.12.16-.04.28 0 .36.12.08.08.08.2 0 .28-.04.12 0 .24.12.32l.12.08zm-12.92-1.92c-.24.08-.52.2-.72.4l.32.12a1.24 1.24 0 0 0 .72-.36 1.1 1.1 0 0 1 .6-.32v.12c.44-.12.88-.2 1.24-.44.08-.04.16 0 .24-.04l1.76-.52c.04 0 .04-.04.08-.04.12-.08.12-.28.24-.36-.08-.16-.24-.12-.36-.08-.48.04-.92.2-1.36.4l-2.76 1.12zm2.36-.72c.16-.12.36-.2.56-.2-.16.12-.36.2-.56.2zm-.24.08c.04-.04.16-.04.24-.08l-.24.24c-.04-.04-.12-.08 0-.16zm0 .16h.04-.04zm-.28 1.24l1.24-.48c.16-.08.32-.12.44-.24v-.12h-.04-.24l-3.28 1.32-4.52 2.2c-.96.48-1.96.96-3.04 1.24-.12.04-.2.04-.28.08-.04.04-.08.08-.04.16 0 0 .04 0 .08.04.36 0 .68-.12 1-.24l2.28-1c2.08-1.12 4.24-2.08 6.4-2.96zm-3-.16c-.28.04-.48.12-.64.32.24-.04.44-.12.64-.32zm-.68.36c-.52.08-1 .32-1.44.64l.56-.12c.32.08.6-.08.84-.24.12-.08.12-.2.04-.28zm-5.88 2.6c-.12.08-.16.2-.16.32 0 .08.08.16.16.12.44-.08.88-.2 1.24-.52h-.32c.16-.12.36-.2.56-.24v.04.08s.04 0 .04-.04c-.04 0-.04-.04-.04-.04.32-.28.72-.4 1.08-.56 0 .08-.04.12-.08.2.16-.04.28-.12.44-.2.56-.16 1.08-.4 1.32-1-.48.16-.92.32-1.32.56-.84.44-1.68.88-2.6 1.16l-.32.12zm19.8-1.64c.04-.04.04-.08-.04-.12-.04 0-.12 0-.2.04l-4.04 1.2a2.55 2.55 0 0 0-.56.32 2.14 2.14 0 0 0-1.12.44c-.48.08-.96.28-1.4.48-.52.24-1.08.44-1.6.64l-.36.12c-.08.04-.16.08-.08.16 0 .04.08.04.12.04-.04.04-.12.08-.2.12-.04 0-.12.04-.12.12 0 .04.12.04.16.04.32-.08.68-.16.96-.36a1.24 1.24 0 0 0 .52-.24c-.2.04-.4.08-.56.2l-.76.12 1.92-.76c.24-.12.48-.2.76-.24l-.04.04-.2.2c-.2 0-.36.08-.52.2.2 0 .36-.08.52-.2a.79.79 0 0 0 .56-.24c-.12 0-.24 0-.36.04l.68-.48c.2-.04.44-.08.68-.08-.08.04-.16.12-.24.2-.04 0-.08 0-.16.04l-.04.04s.04.04.08 0c.04 0 .08-.04.12-.08.32-.04.64-.12.88-.32.2-.04.4-.08.56-.24.2 0 .36-.04.52-.08.4-.16.8-.28 1.2-.4l1.8-.48c.2-.04.36-.08.52-.2.08-.08 0-.12-.08-.16h.04c.04-.04.08-.08.08-.12zm-1.32.44c-.16.08-.28.12-.44.12.12-.08.28-.08.44-.12zm-.76.24h-.04l.36-.12-.32.12zm-15.16.12l.36-.12v.12h-.36zm15.16-.12c-.16.08-.32.08-.44.12l.44-.12zm-.84.24l.04-.04c.12 0 .24-.04.36-.08l-.36.12h-.04zm0 0c-.08.04-.2.08-.28.08.08-.04.2-.08.28-.08zm-1.92.52c.32 0 .64-.16.96-.2l-.2.2a.79.79 0 0 0-.56.24l-.68.12.48-.36z" fill="url(#A)"/><defs><linearGradient id="A" x1="304" y1="12" x2="-4" y2="12" gradientUnits="userSpaceOnUse"><stop stop-color="#ffd0d0"/><stop offset=".245" stop-color="#baedea"/><stop offset=".505" stop-color="#c4b3dd"/><stop offset=".766" stop-color="#b3ddc4"/><stop offset="1" stop-color="#ffd0f3"/></linearGradient></defs></svg>