<svg width="63" height="43" viewBox="0 0 63 43" fill="none" xmlns="http://www.w3.org/2000/svg">
<path d="M13.9825 19.1693C17.7531 19.1693 20.8429 20.2914 23.2519 22.5357C25.7656 24.6731 27.0224 27.3983 27.0224 30.7113C27.0224 34.0243 25.7132 36.8029 23.0948 39.0472C20.581 41.2914 17.3865 42.4136 13.5112 42.4136C9.42643 42.4136 6.12718 41.238 3.61347 38.8869C1.20449 36.4288 0 33.1693 0 29.1082C0 24.1922 1.57107 18.9021 4.71322 13.238C7.9601 7.46701 11.8354 3.24563 16.3392 0.573878L20.8953 4.74181L20.581 5.38303C18.9052 6.45174 17.3865 8.42884 16.0249 11.3143C14.6633 14.093 13.9302 16.7113 13.8254 19.1693H13.9825ZM49.9601 19.009C53.7307 19.009 56.8204 20.1311 59.2294 22.3754C61.7431 24.5128 63 27.238 63 30.551C63 33.864 61.6908 36.6426 59.0723 38.8869C56.5586 41.1311 53.3641 42.2533 49.4888 42.2533C45.404 42.2533 42.1047 41.0777 39.591 38.7265C37.182 36.2685 35.9776 33.009 35.9776 28.9479C35.9776 24.0319 37.5486 18.7418 40.6908 13.0777C43.9377 7.3067 47.813 3.08533 52.3167 0.413574L56.8728 4.58151L56.5586 5.22273C54.8828 6.29143 53.3641 8.26853 52.0025 11.154C50.6409 13.9327 49.9077 16.551 49.803 19.009H49.9601Z" fill="white"/>
</svg>
